<?xml version="1.0" encoding="utf-8"?>
<!-- Generator: Adobe Illustrator 27.9.0, SVG Export Plug-In . SVG Version: 6.00 Build 0)  -->
<svg version="1.1" id="Calque_1" xmlns="http://www.w3.org/2000/svg" xmlns:xlink="http://www.w3.org/1999/xlink" x="0px" y="0px"
	 viewBox="0 0 640 480" style="enable-background:new 0 0 640 480;" xml:space="preserve">
<style type="text/css">
	.st0{fill:#FFFFFF;stroke:#3500B7;stroke-width:16;stroke-linejoin:round;stroke-miterlimit:10;}
	.st1{fill:#FFFFFF;}
	.st2{fill:#3500B7;}
	.st3{fill:#3500B7;stroke:#FFFFFF;stroke-width:8;stroke-linejoin:round;stroke-miterlimit:10;}
	.st4{opacity:6.000000e-02;}
</style>
<g>
	<path class="st0" d="M159.8,122.4l25,46.7c0.8,1.7,2.4,2.8,4.3,3.1l64.2-6.9c4.6,0.7,6.5,6.4,3.1,9.6l-46,49.1
		c-1.3,1.3-1.9,3.2-1.6,5l8,59.1c0.8,4.6-4,8.1-8.2,6L155,276.8c-1.6-0.9-3.6-0.9-5.3,0L93.8,323c-4.1,2.2-9-1.3-8.2-6l11.8-60.4
		c0.3-1.8-0.3-3.7-1.6-5l-47.6-30.2c-3.4-3.3-1.5-9,3.1-9.6l65.7-22.6c1.8-0.3,3.4-1.4,4.3-3.1l28.3-63.7
		C151.8,118.2,157.7,118.2,159.8,122.4z"/>
	<g>
		<path class="st1" d="M352,370.3c-76,0-145.8-19.5-186.6-52c-3.2-2.6-4-7.2-1.7-10.6c1.5-2.3,4.1-3.6,6.7-3.6
			c1.3,0,2.6,0.3,3.7,0.9c39.2,20.8,94.7,32.7,152.2,32.7c56,0,108.5-10.8,147.9-30.5c37.6-18.8,58.3-43.2,58.3-68.6
			c0-17.6-10.2-35.1-29.6-50.6c-3.2-2.6-4-7.2-1.7-10.6c1.5-2.3,4.1-3.6,6.7-3.6c1.3,0,2.6,0.3,3.7,0.9c40.3,21.4,62.6,50,62.6,80.5
			c0,31.8-23.9,61.2-67.2,82.9C465.5,358.9,410.4,370.3,352,370.3z"/>
		<path class="st2" d="M507.9,181.8c36.1,19.2,58.3,45,58.3,73.5c0,59.2-95.9,107.1-214.3,107.1c-76.6,0-143.8-20.1-181.7-50.3
			c39.1,20.7,94.5,33.7,156,33.7c118.3,0,214.3-48,214.3-107.1C540.6,217.7,528.6,198.2,507.9,181.8 M508,165.8
			c-5.2,0-10.3,2.6-13.4,7.2c-4.5,6.9-3.1,16.1,3.4,21.3c12.1,9.7,26.6,25.2,26.6,44.3c0,21.9-19.7,44.3-53.9,61.4
			c-38.3,19.1-89.6,29.7-144.4,29.7c-56.2,0-110.4-11.6-148.5-31.8c-2.4-1.3-5-1.9-7.5-1.9c-5.2,0-10.3,2.6-13.4,7.2
			c-4.5,6.9-3.1,16.1,3.4,21.3c42.2,33.7,113.9,53.8,191.6,53.8c59.7,0,116-11.7,158.7-33.1c46.2-23.1,71.6-55.1,71.6-90.1
			c0-33.6-23.7-64.7-66.8-87.6C513.1,166.4,510.5,165.8,508,165.8L508,165.8z"/>
	</g>
	<g>
		<g>
			<path class="st1" d="M187.9,305.6c-4.6,0-7.3-1.8-8.8-3.5c-2.9,2.3-6.4,3.5-10.4,3.5h-24.2c-6.2,0-8.9-3.2-10-5.1
				c-1.1-1.9-2.4-6,0.9-11.3l42.7-68.7c3.1-5.2,8.2-8.1,14.3-8.1h24.2c4.6,0,7.3,1.8,8.8,3.5c2.9-2.3,6.4-3.5,10.3-3.5h23.2
				c6.2,0,8.9,3.2,9.9,5.1c1.1,1.9,2.4,6-0.9,11.3l-2.6,4.2c-4.7,7.7-10.9,13.7-18.3,17.8c-2.1,1.2-4.3,2.2-6.6,3.1
				c0.4,0.5,0.7,1.1,1,1.7c4.9,9.4-1.6,19.8-3.7,23.2l-11.6,18.6c-3.1,5.2-8.2,8.1-14.3,8.1H187.9z"/>
			<path class="st2" d="M259.1,220.5c3.2,0,4,1.4,2.2,4.2l-2.6,4.2c-4,6.5-9.2,11.5-15.4,15c-6.3,3.5-13.1,5.2-20.7,5.2h-1.7
				c-1.9,0-3.3,0.8-4.2,2.4c-1,1.6-0.6,2.4,1.2,2.4h2.3c7.7,0,12.5,1.8,14.4,5.3c1.8,3.6,0.7,8.7-3.4,15.3l-11.6,18.7
				c-1.7,2.8-4.2,4.2-7.5,4.2h-24.2c-3.2,0-3.9-1.4-2.2-4.2l22-35.3c1.7-2.7,1-4-2.2-4c-3.1,0-5.5,1.3-7.3,4l-22,35.3
				c-1.7,2.8-4.2,4.2-7.5,4.2h-24.2c-3.2,0-4-1.4-2.2-4.2l42.8-68.7c1.7-2.8,4.2-4.2,7.5-4.2h24.2c3.2,0,4,1.4,2.2,4.2l-12.7,20.5
				c-1.8,2.7-1.1,4,2.2,4c3,0,5.4-1.3,7.3-4l12.7-20.5c1.7-2.8,4.2-4.2,7.5-4.2H259.1 M259.1,204.5h-23.2c-3.5,0-6.9,0.7-9.9,2
				c-2.4-1.2-5.5-2-9.3-2h-24.2c-8.9,0-16.5,4.3-21.1,11.9l-42.7,68.6c-5.7,9.2-2.7,16.7-1.1,19.4c1.5,2.8,6.3,9.2,16.9,9.2h24.2
				c3.5,0,6.9-0.7,9.9-2c2.4,1.2,5.4,2,9.2,2h24.2c8.9,0,16.5-4.3,21.1-11.9l11.5-18.6c0,0,0,0,0-0.1c5.7-9.2,7.7-17.6,6.1-25.1
				c0.1,0,0.1-0.1,0.2-0.1c8.6-4.8,15.8-11.7,21.2-20.6l2.6-4.2c5.7-9.2,2.7-16.6,1.1-19.4C274.5,210.9,269.8,204.5,259.1,204.5
				L259.1,204.5z"/>
		</g>
		<g>
			<path class="st1" d="M236.1,305.6c-8,0-11.4-4.1-12.7-6.5c-1.5-2.9-2.5-7.7,1.5-14.1l22.7-36.5c2.2-3.7,5.4-6.7,9.3-8.9
				c3.9-2.2,8.1-3.3,12.4-3.3h46.8c11.2,0,16.1,4.8,18.3,8.8c3.1,5.8,2.2,12.6-2.6,20.2l-4.9,8c-1.6,2.7-3.7,4.7-6.2,6.1
				c0.1,1.9-0.3,4.4-2,7.1c0,0.1-4.3,6.9-4.3,6.9c-2.3,3.7-5.5,6.7-9.3,8.8c-3.9,2.2-8.1,3.3-12.4,3.3H236.1z"/>
			<path class="st2" d="M316.1,244.4c5.9,0,9.6,1.5,11.2,4.6c1.6,3.1,0.9,7.1-2.4,12.2l-4.9,8.1c-1.7,2.8-4.2,4.2-7.5,4.2h-32.9
				c-3.3,0-5.8,1.4-7.5,4.2l-7,11.2c-1.7,2.6-1,3.9,2.1,3.9c3.1,0,5.5-1.3,7.2-3.9l3.9-6.4c1.7-2.8,4.2-4.2,7.5-4.2h23.6
				c3.2,0,3.9,1.4,2.2,4.2l-4.2,6.8c-1.6,2.6-3.8,4.6-6.5,6.1c-2.7,1.5-5.5,2.3-8.5,2.3h-56.5c-3,0-4.8-0.8-5.6-2.3
				c-0.8-1.5-0.4-3.5,1.2-6.1l22.7-36.5c1.5-2.6,3.7-4.6,6.4-6.1c2.7-1.5,5.6-2.3,8.5-2.3H316.1 M282.5,268.6c3.1,0,5.5-1.3,7.2-4
				l7-11.4c1.7-2.6,1-3.9-2.1-3.9c-3.1,0-5.5,1.3-7.2,3.9l-7.1,11.4C278.6,267.2,279.4,268.6,282.5,268.6 M316.1,228.4h-46.8
				c-5.7,0-11.2,1.4-16.3,4.3c-5.1,2.9-9.3,6.8-12.3,11.7l-22.6,36.4c-6.4,10.2-3.8,18.2-1.8,22.1c1.7,3.2,7.1,10.7,19.8,10.7h56.5
				c5.7,0,11.2-1.5,16.3-4.3c5-2.8,9.1-6.7,12.1-11.5c0,0,0,0,0,0l4.2-6.8c0.1-0.1,0.1-0.2,0.2-0.3c1.4-2.4,2.3-4.7,2.7-6.8
				c2.1-1.8,4-3.9,5.5-6.4l4.8-7.9c8.1-12.7,6-22.4,2.9-28.2C338.8,236.5,332.1,228.4,316.1,228.4L316.1,228.4z"/>
		</g>
		<g>
			<path class="st1" d="M352.7,307.7c-3.3,0-6.3-0.8-8.9-2.3c0,0-23.1-13.6-23.2-13.7c-4-2.5-5.4-5.7-6-7.9
				c-0.5-2.2-0.6-5.7,1.9-9.7l18.6-29.7c3.1-5.2,8.2-8.1,14.4-8.1h23.6c4.5,0,7.1,1.8,8.6,3.4c2.8-2.2,6.4-3.4,10.4-3.4h23.6
				c6,0,8.7,3.2,9.8,5c1.3,2.3,2.3,6.2-0.8,11.3c0,0-18,28.9-18,28.9c-2.6,4.2-6.2,7.2-10.7,9.2l-36.4,15.5
				C357.7,307.2,355.3,307.7,352.7,307.7z"/>
			<path class="st2" d="M415.8,244.4c3.1,0,3.8,1.4,2.1,4.2l-18,28.8c-1.8,2.8-4.1,4.8-7.1,6.1l-36.4,15.5c-1,0.5-2.3,0.7-3.7,0.7
				c-1.9,0-3.5-0.4-4.9-1.2l-22.9-13.5c-2.7-1.7-3.2-3.9-1.5-6.6l18.7-29.8c1.7-2.8,4.2-4.2,7.6-4.2h23.6c3.1,0,3.8,1.4,2.1,4.2
				l-25.2,40.7c-1.5,2.3-1.1,4.1,1.1,5.4c0.7,0.4,1.5,0.6,2.2,0.6c1.5,0,2.6-0.7,3.3-2l27.8-44.7c1.7-2.8,4.2-4.2,7.6-4.2H415.8
				 M415.8,228.4h-23.6c-3.5,0-6.9,0.7-9.9,2c-2.4-1.2-5.4-2-9.1-2h-23.6c-8.9,0-16.6,4.3-21.2,11.9l-18.6,29.6
				c-4,6.3-3.8,12.1-2.9,15.8c0.9,3.7,3.2,8.9,9.5,12.9c0.1,0.1,0.2,0.1,0.3,0.2l22.9,13.5c0.1,0,0.1,0.1,0.2,0.1
				c3.9,2.2,8.2,3.3,12.9,3.3c3.7,0,7.1-0.7,10.2-2.1l36.3-15.5c0,0,0,0,0.1,0c5.9-2.6,10.7-6.7,14.2-12.2c0,0,0-0.1,0.1-0.1
				l18-28.8c0.1-0.1,0.1-0.2,0.2-0.3c5.5-9.2,2.4-16.6,0.9-19.3C431,234.7,426.2,228.4,415.8,228.4L415.8,228.4z"/>
		</g>
		<g>
			<path class="st1" d="M401.4,305.6c-6.3,0-9-3.3-10-5.2s-2.3-6,1.1-11.3l27.9-44.7c1.6-2.7,3.7-4.7,6.2-6.1
				c-0.1-1.9,0.3-4.4,2-7.1c0,0,6.8-11,6.8-11c3.1-5.2,8.2-8.1,14.3-8.1h23.6c6.1,0,8.8,3.2,9.9,5.1c1.1,1.9,2.4,5.9-0.8,11.3
				c0,0-6.8,11-6.8,11c-1.6,2.7-3.7,4.7-6.3,6.1c0.1,1.9-0.3,4.4-2,7.1c0,0-28.1,45-28.1,45c-3.3,5.1-8.3,7.9-14.2,7.9H401.4z"/>
			<path class="st2" d="M473.2,220.2c3.2,0,3.9,1.4,2.2,4.2l-6.8,10.9c-1.7,2.8-4.2,4.2-7.5,4.2h-23.6c-3.2,0-3.9-1.4-2.2-4.2
				l6.8-10.9c1.7-2.8,4.2-4.2,7.5-4.2H473.2 M458.2,244.4c3.2,0,3.9,1.4,2.2,4.2l-27.9,44.8c-1.8,2.8-4.3,4.2-7.5,4.2h-23.6
				c-3.3,0-4-1.4-2.2-4.2l27.9-44.8c1.7-2.8,4.2-4.2,7.5-4.2H458.2 M473.2,204.2h-23.6c-8.9,0-16.6,4.3-21.1,11.9l-6.7,10.8
				c-0.1,0.1-0.1,0.2-0.1,0.2c-1.4,2.4-2.3,4.7-2.7,6.8c-2.1,1.7-3.9,3.9-5.5,6.4l-27.8,44.6c-5.8,9.1-2.8,16.6-1.3,19.4
				c1.5,2.8,6.3,9.4,17.1,9.4H425c8.6,0,16.2-4.2,20.9-11.6c0-0.1,0.1-0.1,0.1-0.2l27.9-44.8c0.1-0.1,0.1-0.2,0.2-0.3
				c1.4-2.4,2.3-4.7,2.7-6.8c2.1-1.8,4-3.9,5.5-6.4l6.7-10.8c0.1-0.1,0.1-0.2,0.2-0.3c5.5-9.2,2.4-16.6,0.8-19.3
				C488.4,210.5,483.7,204.2,473.2,204.2L473.2,204.2z"/>
		</g>
		<g>
			<path class="st1" d="M486.3,305.6c-4.6,0-7.3-1.7-8.8-3.4c-2.9,2.2-6.3,3.4-10.2,3.4h-23.6c-6.3,0-9-3.3-10-5.2
				c-1.1-1.9-2.3-6,1.1-11.3l27.9-44.7c3.1-5.2,8.2-8.1,14.3-8.1h51.7c11.2,0,16.1,4.8,18.3,8.8c3.1,5.8,2.2,12.6-2.6,20.2
				c0,0-20.1,32.3-20.1,32.3c-3.3,5.1-8.3,7.9-14.2,7.9H486.3z"/>
			<path class="st2" d="M528.6,244.4c5.9,0,9.6,1.5,11.2,4.6c1.6,3.1,0.9,7.1-2.4,12.2l-20.1,32.3c-1.8,2.8-4.3,4.2-7.5,4.2h-23.6
				c-3.3,0-4-1.4-2.2-4.2l25-40.3c1.7-2.6,0.9-3.9-2.2-3.9c-3,0-5.4,1.3-7.1,3.9l-25,40.3c-1.8,2.8-4.3,4.2-7.5,4.2h-23.6
				c-3.3,0-4-1.4-2.2-4.2l27.9-44.8c1.7-2.8,4.2-4.2,7.5-4.2H528.6 M528.6,228.4h-51.7c-8.9,0-16.5,4.3-21.1,11.9L428,284.9
				c-5.8,9.1-2.8,16.6-1.3,19.4c1.5,2.8,6.3,9.4,17.1,9.4h23.6c3.4,0,6.7-0.7,9.7-2c2.4,1.2,5.5,2,9.2,2h23.6
				c8.6,0,16.2-4.2,20.9-11.6c0-0.1,0.1-0.1,0.1-0.2l20-32.2c8.1-12.8,6.1-22.4,2.9-28.3C551.3,236.5,544.5,228.4,528.6,228.4
				L528.6,228.4z"/>
		</g>
	</g>
</g>
<g>
	<path class="st3" d="M159.8,121.4l25,46.7c0.8,1.7,2.4,2.8,4.3,3.1l64.2-6.9c4.6,0.7,6.5,6.4,3.1,9.6l-46,49.1
		c-1.3,1.3-1.9,3.2-1.6,5l8,59.1c0.8,4.6-4,8.1-8.2,6L155,275.8c-1.6-0.9-3.6-0.9-5.3,0L93.8,322c-4.1,2.2-9-1.3-8.2-6l11.8-60.4
		c0.3-1.8-0.3-3.7-1.6-5l-47.6-30.2c-3.4-3.3-1.5-9,3.1-9.6l65.7-22.6c1.8-0.3,3.4-1.4,4.3-3.1l28.3-63.7
		C151.8,117.2,157.7,117.2,159.8,121.4z"/>
	<g>
		<path class="st2" d="M352,365.3c-75.1,0-144-19.1-184.1-51.2c-1.6-1.3-2-3.6-0.9-5.3c0.8-1.2,2-1.8,3.3-1.8c0.6,0,1.3,0.2,1.9,0.5
			c39.8,21.1,95.9,33.2,154.1,33.2c56.6,0,109.8-11,149.7-31c39-19.5,60.5-45.2,60.5-72.2c0-18.9-10.8-37.5-31.1-53.7
			c-1.6-1.3-2-3.6-0.9-5.3c0.8-1.2,2-1.8,3.3-1.8c0.6,0,1.3,0.2,1.9,0.5c39,20.7,60.4,48,60.4,77c0,30.2-23.1,58.4-65,79.3
			C464.3,354.1,409.8,365.3,352,365.3z"/>
		<path class="st1" d="M507.9,180.8c36.1,19.2,58.3,45,58.3,73.5c0,59.2-95.9,107.1-214.3,107.1c-76.6,0-143.8-20.1-181.7-50.3
			c39.1,20.7,94.5,33.7,156,33.7c118.3,0,214.3-48,214.3-107.1C540.6,216.7,528.6,197.2,507.9,180.8 M508,172.8
			c-2.6,0-5.2,1.3-6.7,3.6c-2.3,3.5-1.5,8.1,1.7,10.6c19.4,15.4,29.6,32.9,29.6,50.6c0,25.4-20.7,49.8-58.3,68.6
			c-39.4,19.7-91.9,30.5-147.9,30.5c-57.5,0-113-11.9-152.2-32.7c-1.2-0.6-2.5-0.9-3.7-0.9c-2.6,0-5.2,1.3-6.7,3.6
			c-2.3,3.5-1.5,8.1,1.7,10.6c40.9,32.6,110.6,52.1,186.6,52.1c58.4,0,113.5-11.4,155.1-32.2c43.3-21.7,67.2-51.1,67.2-82.9
			c0-30.5-22.2-59.1-62.6-80.5C510.5,173.1,509.2,172.8,508,172.8L508,172.8z"/>
	</g>
	<g>
		<g>
			<path class="st2" d="M187.9,300.6c-3.8,0-5.6-1.7-6.4-3c-1.2-2-0.9-4.5,0.7-7.2l19.7-31.7c-0.1,0.2-0.3,0.4-0.4,0.6l-22,35.2
				c-2.4,4-6.1,6.1-10.9,6.1h-24.2c-3.1,0-5.3-1-6.5-3.1c-1.2-2.1-0.9-4.5,0.8-7.3l42.8-68.7c2.4-4,6.1-6.1,10.9-6.1h24.2
				c3.1,0,5.3,1,6.5,3.1c1.2,2.1,0.9,4.5-0.8,7.3L212,242.5c0.1-0.2,0.3-0.3,0.4-0.5l12.7-20.4c2.5-4,6.2-6.1,10.9-6.1h23.2
				c3.1,0,5.3,1,6.5,3.1c1.2,2.1,0.9,4.5-0.8,7.3l-2.6,4.2c-4.4,7.1-10.1,12.6-16.9,16.4c-4,2.2-8.3,3.8-12.8,4.8
				c2.6,1.2,4.5,3,5.7,5.3c2.6,5,1.4,11.3-3.5,19.3L223,294.5c-2.4,4-6.1,6.1-10.9,6.1H187.9z"/>
			<path class="st1" d="M259.1,219.5c3.2,0,4,1.4,2.2,4.2l-2.6,4.2c-4,6.5-9.2,11.5-15.4,15c-6.3,3.5-13.1,5.2-20.7,5.2h-1.7
				c-1.9,0-3.3,0.8-4.2,2.4c-1,1.6-0.6,2.4,1.2,2.4h2.3c7.7,0,12.5,1.8,14.4,5.3c1.8,3.6,0.7,8.7-3.4,15.3l-11.6,18.7
				c-1.7,2.8-4.2,4.2-7.5,4.2h-24.2c-3.2,0-3.9-1.4-2.2-4.2l22-35.3c1.7-2.7,1-4-2.2-4c-3.1,0-5.5,1.3-7.3,4l-22,35.3
				c-1.7,2.8-4.2,4.2-7.5,4.2h-24.2c-3.2,0-4-1.4-2.2-4.2l42.8-68.7c1.7-2.8,4.2-4.2,7.5-4.2h24.2c3.2,0,4,1.4,2.2,4.2l-12.7,20.5
				c-1.8,2.7-1.1,4,2.2,4c3,0,5.4-1.3,7.3-4l12.7-20.5c1.7-2.8,4.2-4.2,7.5-4.2H259.1 M259.1,211.5h-23.2c-3.9,0-7.5,1.2-10.3,3.5
				c-1.5-1.7-4.2-3.5-8.8-3.5h-24.2c-6.1,0-11.2,2.9-14.3,8.1l-42.7,68.6c-3.3,5.4-2,9.4-0.9,11.3c1.1,1.9,3.8,5.1,10,5.1h24.2
				c4,0,7.5-1.2,10.4-3.5c1.5,1.7,4.2,3.5,8.8,3.5h24.2c6.1,0,11.2-2.9,14.3-8.1L238,278c2.1-3.5,8.5-13.9,3.7-23.2
				c-0.3-0.6-0.7-1.2-1-1.7c2.3-0.9,4.4-1.9,6.6-3.1c7.4-4.2,13.6-10.1,18.3-17.8l2.6-4.2c3.3-5.3,2-9.4,0.9-11.3
				C268,214.7,265.3,211.5,259.1,211.5L259.1,211.5z"/>
		</g>
		<g>
			<path class="st2" d="M236.1,300.6c-5.7,0-8.1-2.4-9.2-4.4c-1.5-2.9-1.1-6.3,1.4-10.1l22.7-36.5c1.9-3.1,4.5-5.6,7.9-7.5
				c3.3-1.8,6.8-2.8,10.5-2.8h46.8c7.4,0,12.4,2.3,14.8,6.7c2.4,4.4,1.5,9.9-2.5,16.2l-4.9,8c-1.8,3.1-4.4,5-7.7,5.8
				c0.1,0.1,0.1,0.2,0.1,0.2c1.2,2,0.9,4.5-0.7,7.2l-4.3,6.8c-2,3.1-4.6,5.6-7.9,7.5c-3.3,1.8-6.8,2.8-10.4,2.8H236.1z"/>
			<path class="st1" d="M316.1,243.4c5.9,0,9.6,1.5,11.2,4.6c1.6,3.1,0.9,7.1-2.4,12.2l-4.9,8.1c-1.7,2.8-4.2,4.2-7.5,4.2h-32.9
				c-3.3,0-5.8,1.4-7.5,4.2l-7,11.2c-1.7,2.6-1,3.9,2.1,3.9c3.1,0,5.5-1.3,7.2-3.9l3.9-6.4c1.7-2.8,4.2-4.2,7.5-4.2h23.6
				c3.2,0,3.9,1.4,2.2,4.2l-4.2,6.8c-1.6,2.6-3.8,4.6-6.5,6.1c-2.7,1.5-5.5,2.3-8.5,2.3h-56.5c-3,0-4.8-0.8-5.6-2.3
				c-0.8-1.5-0.4-3.5,1.2-6.1l22.7-36.5c1.5-2.6,3.7-4.6,6.4-6.1c2.7-1.5,5.6-2.3,8.5-2.3H316.1 M282.5,267.6c3.1,0,5.5-1.3,7.2-4
				l7-11.4c1.7-2.6,1-3.9-2.1-3.9c-3.1,0-5.5,1.3-7.2,3.9l-7.1,11.4C278.6,266.2,279.4,267.6,282.5,267.6 M316.1,235.4h-46.8
				c-4.3,0-8.5,1.1-12.4,3.3c-3.9,2.2-7.1,5.2-9.3,8.9L224.9,284c-4,6.4-3,11.2-1.5,14.1c1.3,2.4,4.7,6.5,12.7,6.5h56.5
				c4.3,0,8.5-1.1,12.4-3.3c3.8-2.2,7-5.1,9.3-8.8l4.3-6.8c0-0.1,0.1-0.1,0.1-0.2c1.7-2.8,2.1-5.2,2-7.1c2.5-1.4,4.7-3.4,6.3-6.1
				l4.9-8c4.9-7.6,5.7-14.4,2.6-20.2C332.2,240.2,327.3,235.4,316.1,235.4L316.1,235.4z"/>
		</g>
		<g>
			<path class="st2" d="M352.7,302.7c-2.6,0-4.9-0.6-6.9-1.7c0,0-23-13.6-23-13.6c-2.3-1.4-3.7-3.2-4.2-5.4c-0.5-2.2,0-4.4,1.4-6.7
				l18.7-29.8c2.4-4,6.2-6.1,11-6.1h23.6c3.8,0,5.5,1.6,6.3,3c1,1.7,1,3.7,0,5.9l1.7-2.8c2.4-4,6.2-6.1,11-6.1h23.6
				c3.8,0,5.5,1.6,6.3,3c1.2,2,0.9,4.5-0.7,7.3l-18,28.8c-2.2,3.5-5.2,6-8.9,7.6l-36.4,15.5C356.6,302.3,354.8,302.7,352.7,302.7z"
				/>
			<path class="st1" d="M415.8,243.4c3.1,0,3.8,1.4,2.1,4.2l-18,28.8c-1.8,2.8-4.1,4.8-7.1,6.1l-36.4,15.5c-1,0.5-2.3,0.7-3.7,0.7
				c-1.9,0-3.5-0.4-4.9-1.2l-22.9-13.5c-2.7-1.7-3.2-3.9-1.5-6.6l18.7-29.8c1.7-2.8,4.2-4.2,7.6-4.2h23.6c3.1,0,3.8,1.4,2.1,4.2
				l-25.2,40.7c-1.5,2.3-1.1,4.1,1.1,5.4c0.7,0.4,1.5,0.6,2.2,0.6c1.5,0,2.6-0.7,3.3-2l27.8-44.7c1.7-2.8,4.2-4.2,7.6-4.2H415.8
				 M415.8,235.4h-23.6c-4,0-7.5,1.2-10.4,3.4c-1.5-1.7-4.1-3.4-8.6-3.4h-23.6c-6.2,0-11.3,2.9-14.4,8.1l-18.6,29.7
				c-2.5,4-2.4,7.5-1.9,9.7c0.5,2.2,2,5.4,6,7.9c0.1,0,0.1,0.1,0.2,0.1l22.9,13.5c0,0,0.1,0,0.1,0.1c2.6,1.5,5.6,2.3,8.9,2.3
				c2.6,0,4.9-0.5,7-1.4l36.3-15.5c4.5-1.9,8.1-5,10.7-9.1c0,0,0,0,0,0l18-28.8c0,0,0.1-0.1,0.1-0.1c3-5.1,2.1-9,0.8-11.3
				C424.5,238.5,421.8,235.4,415.8,235.4L415.8,235.4z"/>
		</g>
		<g>
			<path class="st2" d="M401.4,300.6c-3.2,0-5.4-1.1-6.5-3.1c-1.1-2.1-0.8-4.5,0.9-7.3l27.9-44.7c1.8-3,4.4-5,7.7-5.8
				c-0.1-0.1-0.1-0.2-0.1-0.2c-1.2-2-0.9-4.5,0.7-7.2l6.8-11c2.4-4,6.1-6.1,10.9-6.1h23.6c3.8,0,5.6,1.7,6.4,3
				c1.2,2,0.9,4.5-0.7,7.2l-6.8,11c-1.8,3-4.4,5-7.7,5.8c0.1,0.1,0.1,0.2,0.1,0.2c1.2,2,0.9,4.5-0.7,7.2l-28,44.9
				c-2.6,4-6.3,6.1-10.9,6.1H401.4z"/>
			<path class="st1" d="M473.2,219.2c3.2,0,3.9,1.4,2.2,4.2l-6.8,10.9c-1.7,2.8-4.2,4.2-7.5,4.2h-23.6c-3.2,0-3.9-1.4-2.2-4.2
				l6.8-10.9c1.7-2.8,4.2-4.2,7.5-4.2H473.2 M458.2,243.4c3.2,0,3.9,1.4,2.2,4.2l-27.9,44.8c-1.8,2.8-4.3,4.2-7.5,4.2h-23.6
				c-3.3,0-4-1.4-2.2-4.2l27.9-44.8c1.7-2.8,4.2-4.2,7.5-4.2H458.2 M473.2,211.2h-23.6c-6.1,0-11.2,2.9-14.3,8.1l-6.7,10.8
				c0,0,0,0.1-0.1,0.1c-1.7,2.8-2.1,5.2-2,7.1c-2.5,1.4-4.6,3.4-6.2,6.1l-27.9,44.7c-3.4,5.3-2.1,9.4-1.1,11.3
				c1.1,1.9,3.8,5.2,10,5.2H425c5.9,0,10.9-2.8,14.2-7.9c0,0,0-0.1,0.1-0.1l27.9-44.8c0,0,0.1-0.1,0.1-0.1c1.7-2.8,2.1-5.2,2-7.1
				c2.5-1.4,4.6-3.4,6.3-6.1l6.7-10.8c0,0,0.1-0.1,0.1-0.1c3.2-5.4,1.8-9.4,0.8-11.3C482,214.3,479.3,211.2,473.2,211.2L473.2,211.2
				z"/>
		</g>
		<g>
			<path class="st2" d="M486.3,300.6c-3.2,0-5.4-1.1-6.5-3.1c-0.9-1.6-0.9-3.5,0-5.5l-1.6,2.5c-2.6,4-6.3,6.1-10.9,6.1h-23.6
				c-3.2,0-5.4-1.1-6.5-3.1c-1.1-2.1-0.8-4.5,0.9-7.3l27.9-44.7c2.4-4,6.1-6.1,10.9-6.1h51.7c7.4,0,12.4,2.3,14.8,6.7
				c2.4,4.4,1.5,9.9-2.5,16.2l-20,32.2c-2.6,4-6.3,6.1-10.9,6.1H486.3z"/>
			<path class="st1" d="M528.6,243.4c5.9,0,9.6,1.5,11.2,4.6c1.6,3.1,0.9,7.1-2.4,12.2l-20.1,32.3c-1.8,2.8-4.3,4.2-7.5,4.2h-23.6
				c-3.3,0-4-1.4-2.2-4.2l25-40.3c1.7-2.6,0.9-3.9-2.2-3.9c-3,0-5.4,1.3-7.1,3.9l-25,40.3c-1.8,2.8-4.3,4.2-7.5,4.2h-23.6
				c-3.3,0-4-1.4-2.2-4.2l27.9-44.8c1.7-2.8,4.2-4.2,7.5-4.2H528.6 M528.6,235.4h-51.7c-6.1,0-11.2,2.9-14.3,8.1l-27.9,44.7
				c-3.4,5.3-2.1,9.4-1.1,11.3c1.1,1.9,3.8,5.2,10,5.2h23.6c3.8,0,7.3-1.2,10.2-3.4c1.5,1.7,4.2,3.4,8.8,3.4h23.6
				c5.9,0,10.9-2.8,14.2-7.9c0,0,0-0.1,0.1-0.1l20.1-32.2c4.9-7.6,5.8-14.4,2.6-20.2C544.7,240.2,539.8,235.4,528.6,235.4
				L528.6,235.4z"/>
		</g>
	</g>
</g>
<g class="st4">
	<image style="overflow:visible;" width="593" height="316" xlink:href="94505F9C.png"  transform="matrix(1 0 0 1 11 82)">
	</image>
</g>
</svg>
