<?xml version="1.0" encoding="UTF-8"?>
<svg id="Calque_1" data-name="Calque 1" xmlns="http://www.w3.org/2000/svg" viewBox="0 0 977.74 895.58">
  <defs>
    <style>
      .cls-1 {
        fill: #06f;
        stroke-width: 0px;
      }
    </style>
  </defs>
  <path class="cls-1" d="m560.39.84c-67.7,5.4-121.3,19.9-179,48.4-57.6,28.4-107.5,66.3-145.2,109.9-16.4,19.1-36.4,48.6-41.9,62-2.1,5.1-2.3,5.2-10.9.8-13.9-7-28.5-18.4-50.5-39.7-25.2-24.3-38.4-32.2-49.5-29.4-9.7,2.4-12,11.1-12,43.9.1,41.9,4.5,63.8,27.5,138.7l6.2,20.2-5.1,6.1c-7.3,8.7-13.2,20.9-15.2,31.4-1.4,7-1.3,27.7.1,36.2,3,17.8,9.5,38.6,18.2,58.1l5,11.2-2.2,3c-2.9,4.1-5.6,12.5-6.5,19.8l-.7,6.2-10.1,9.8c-19.8,19.1-40.7,35.4-60.1,46.9-27.7,16.2-30.6,18.8-27.5,24.2,3.9,7.1,19,14.6,36.9,18.5,12,2.6,41.9,2.9,54.4.5l8-1.5,10.8,5.4c20.1,10.1,35.5,14.1,57.2,14.9,12.3.4,13.2.6,17.4,3.4,10.6,7,31.6,13,45.7,13,5.6,0,8.5.4,8,.9-.6.6-11.6,6.4-24.5,13-12.9,6.5-25.4,13.4-27.9,15.3-8.7,6.5-10.1,14.3-3.9,21.4,10.3,11.7,30.7,12.4,51.3,1.6,8-4.2,23.1-15.3,32.3-23.7l6.4-5.8,19.1.2c36.4.4,62.7-5.5,92.9-21,30.1-15.5,59.7-45.9,74.1-76.2l4.2-8.7,4.3.4c5.8.5,17.5,6.4,24,12.1,15,13.3,27.2,40.8,30.2,68,5.4,50.6-23.3,102.9-79.5,145.1-44.5,33.5-113.3,64.8-186.3,84.9-9.2,2.6-17.1,4.8-17.7,5.1-2,.8,74.3-.5,87.5-1.6,152.1-11.9,272.4-50.6,358-115.1,55.1-41.5,97.5-98.3,117-156.7,7.2-21.9,10.1-37.8,10.7-59.7,1-35.1-5.3-63-21.7-96.2-7.7-15.5-18.2-31.9-29.4-45.8-7.7-9.5-30.1-32.5-31.7-32.5-.5,0-.9-.5-.9-1.1,0-1.7,11.3-.3,21.5,2.6,21.3,6.2,42.3,20.2,64.3,42.9,14.6,15.1,22.9,26.3,30.2,41.1,10.7,21.7,14.4,38.7,14.3,66,0,22.6-3.4,41.8-12,68-10.9,33.5-33,75.8-55.3,106.1-2.3,3-4,5.7-3.8,5.9.4.4,19.1-14.8,30.3-24.7,11.5-10.2,40.5-39.5,51.1-51.8,36.5-42.3,63.7-85.3,80.3-127.2,10.7-27.1,20.5-68.4,26.2-110.3,2.5-19.1,3.6-56.3,2-73.2-3-32.3-12-60-26.9-82.2-7-10.6-24.3-28.6-37.7-39.4-48.1-38.8-108.7-59.4-181-61.4-23.1-.6-45.2.6-66.3,3.7q-16.7,2.5-10.8-.6c26.9-13.8,63.7-25,97.6-29.6,14.6-2,56.7-1.7,71,.5,39.3,6.1,75.5,21.4,102.9,43.4l3.4,2.8-2.9-4.5c-22.7-35.2-60.2-72-100.4-98.7-46.9-31.1-101.9-52-160-60.8-29.9-4.5-78.7-6.5-105.5-4.4ZM183.99,395.84c11,3.5,23.6,11.4,37.9,23.4,14.4,12.2,37.7,37.3,49.7,53.5,3.9,5.3,11.8,21.8,10.9,22.7-.2.3-6.5-3.6-13.9-8.5-21.9-14.6-37.5-22.2-45.7-22.2-4.4,0-9,4.5-9.7,9.5-1.1,8.6,7.1,24.5,16.9,33,13.5,11.5,34.1,23.1,53.3,30,17.7,6.4,20.3,7.9,22.2,12.2,3.1,7.5.7,21.5-5.1,30.4-1.3,1.9-6.5,8.2-11.5,13.9-9.4,10.6-15,19.3-17.1,26.6l-1.2,4.1-5.3-2.1-5.3-2,2.1-4.1c5.5-10.7.3-22.8-14.3-32.8-35.4-24.4-59.5-44.9-77.8-66.2-16.5-19.2-25.3-33.9-32-53.3-3.6-10.6-3.7-10.9-3.7-26.2,0-14,.3-16.1,2.4-21.5,3-7.3,11.2-15.9,19-19.8,7.1-3.5,18.5-3.8,28.2-.6Zm-7,229.4c12.8,4.4,23,6.8,24.1,5.7.8-.8,2.9.7,6.8,4.8,3.6,3.6,8.2,6.9,12.2,8.9,6.6,3.1,23.5,8.1,27.6,8.1,3.8,0,2.5,2-3,4.5-3.9,1.8-7,2.5-11.9,2.5-8,0-22.8-3.6-32.2-7.9-16.5-7.5-36.5-24.1-34-28.4.7-1.2,2.5-.8,10.4,1.8Z"/>
</svg>