<svg width="250" height="78" viewBox="0 0 250 78" fill="none" xmlns="http://www.w3.org/2000/svg">
<path d="M220 0H180.961V7.70054H220V0Z" fill="#1A3844"/>
<path d="M182.019 0L212.5 33.9191H151.539L182.019 0Z" fill="#1A3844"/>
<path d="M180.481 0L210.962 33.9191H150L180.481 0Z" fill="#1A3844"/>
<path d="M219.519 0L250 33.9191H189.039L219.519 0Z" fill="#1A3844"/>
<path d="M175.962 13.2009C180.21 13.2009 183.654 16.4844 183.654 20.5348V23.3466H230.696C234.946 23.3466 238.388 26.6301 238.388 30.6804V62.766C238.388 66.8163 234.946 70.0999 230.696 70.0999H183.654V70.405C183.654 74.4553 180.21 77.7388 175.962 77.7388H7.69231C3.44396 77.7388 0 74.4553 0 70.405V20.5348C3.96519e-07 16.4844 3.44396 13.2009 7.69231 13.2009H175.962Z" fill="#1A3844"/>
<path d="M217.885 4.95038H182.692V36.1192H217.885V4.95038Z" fill="#D9D9D9"/>
<path d="M224.046 30.4161H166.743V65.024H224.046V30.4161Z" fill="#D9D9D9"/>
<path d="M202.885 30.4355H232.308V61.421C232.308 63.4462 230.587 65.0879 228.462 65.0879H202.885V30.4355Z" fill="#B8B8B8"/>
<path d="M182.63 4.95038L206.029 30.9397H159.231L182.63 4.95038Z" fill="#D9D9D9"/>
<path d="M217.789 4.95038L241.189 30.9397H194.389L217.789 4.95038Z" fill="#B8B8B8"/>
<path d="M7.71289 70.1129V49.9632H15.744C16.8511 49.9632 17.8173 50.2318 18.6425 50.7692C19.4677 51.2873 20.1018 51.9781 20.5447 52.8417C21.0075 53.7053 21.2391 54.6456 21.2391 55.6627C21.2391 56.2767 21.1385 56.91 20.9372 57.5625C20.7358 58.215 20.4339 58.8195 20.0314 59.376C20.7158 59.9134 21.2491 60.585 21.6316 61.391C22.0141 62.1969 22.2052 63.0605 22.2052 63.9816C22.2052 64.7301 22.0543 65.4689 21.7524 66.1981C21.4706 66.9273 21.0679 67.5893 20.5447 68.1843C20.0414 68.76 19.4477 69.2301 18.7633 69.5948C18.099 69.9402 17.3845 70.1129 16.6196 70.1129H7.71289ZM11.4265 58.3109H15.6535C16.0158 58.3109 16.3378 58.1765 16.6196 57.9079C16.9014 57.6393 17.1228 57.3034 17.2839 56.9004C17.465 56.4974 17.5556 56.0849 17.5556 55.6627C17.5556 55.1062 17.3946 54.6169 17.0725 54.1946C16.7505 53.7724 16.3076 53.5613 15.744 53.5613H11.4265V58.3109ZM11.4265 66.5148H16.6196C16.9417 66.5148 17.2436 66.3901 17.5254 66.1405C17.8072 65.8719 18.0387 65.5456 18.2198 65.1618C18.401 64.7781 18.4915 64.3846 18.4915 63.9816C18.4915 63.3676 18.3205 62.8495 17.9783 62.4272C17.6562 61.9859 17.2335 61.7652 16.7102 61.7652H11.4265V66.5148ZM24.932 70.1129V55.7202H28.5249V56.7853C29.3099 56.0176 30.2458 55.6434 31.3327 55.6627C32.4398 55.6819 33.6575 55.8929 34.986 56.2959L33.2349 59.2608C32.47 59.0113 31.7152 58.9347 30.9704 59.0306C30.2458 59.1264 29.652 59.3377 29.1891 59.6638C28.7262 59.99 28.5047 60.3835 28.5249 60.844V70.1129H24.932ZM50.0604 64.2407H39.4931C39.5737 65.1043 39.9158 65.7663 40.5197 66.2269C41.1235 66.6875 41.8683 66.9561 42.7539 67.0329C43.6395 67.0905 44.5452 66.9753 45.4712 66.6875C46.4172 66.3804 47.2625 65.9198 48.0074 65.3058L50 67.9252C48.8929 68.808 47.7658 69.4413 46.6185 69.8251C45.4914 70.1897 44.3743 70.372 43.2672 70.372C40.7108 70.372 38.7887 69.6907 37.5004 68.3282C36.2324 66.9658 35.5983 65.0372 35.5983 62.5424C35.5983 61.1224 35.8902 59.8846 36.4739 58.8291C37.0777 57.7735 37.9231 56.958 39.01 56.3823C40.1172 55.8066 41.4154 55.5283 42.9048 55.5475C46.1656 55.5858 48.3395 56.8045 49.4264 59.2033C49.7283 59.8941 49.9195 60.6521 50 61.4773C50.1006 62.3026 50.1208 63.2237 50.0604 64.2407ZM43.237 58.7715C42.0091 58.7715 41.0731 59.0881 40.4291 59.7214C39.805 60.3547 39.4931 61.0551 39.4931 61.8227H46.9506C46.9506 61.036 46.6285 60.3354 45.9845 59.7214C45.3604 59.0881 44.4447 58.7715 43.237 58.7715ZM55.0579 54.0219C54.4341 54.0219 53.9106 53.8204 53.4879 53.4174C53.0652 53.0144 52.8539 52.5155 52.8539 51.9206C52.8539 51.3449 53.0652 50.8555 53.4879 50.4525C53.9106 50.0495 54.4341 49.848 55.0579 49.848C55.6618 49.848 56.175 50.0495 56.5977 50.4525C57.0204 50.8555 57.2318 51.3449 57.2318 51.9206C57.2318 52.5155 57.0204 53.0144 56.5977 53.4174C56.175 53.8204 55.6618 54.0219 55.0579 54.0219ZM56.7185 70.1129H53.3973V55.7202H56.7185V70.1129ZM71.7277 70.1129H59.9527V67.4359L67.1989 59.0306H60.1641V55.7202H71.7277V58.5124L64.542 66.8026H71.7277V70.1129ZM87.5402 70.1129H83.9172V61.8227C83.9172 60.844 83.6454 60.1339 83.102 59.6926C82.5785 59.2513 81.8539 59.0306 80.9281 59.0306C80.0827 59.0306 79.3983 59.2896 78.875 59.8078C78.3718 60.3066 78.1202 60.8345 78.1202 61.391V70.1129H74.4972V49.9632H78.1202V56.4974C78.6033 56.1137 79.177 55.8642 79.8412 55.749C80.5254 55.6146 81.23 55.5763 81.9547 55.6339C83.7862 55.8449 85.175 56.5167 86.1212 57.6489C87.0672 58.762 87.5402 60.1532 87.5402 61.8227V70.1129ZM105.363 70.1129H101.739V49.9632H105.363V70.1129ZM131.501 70.1129H127.878V61.8227C127.878 60.8057 127.616 60.0956 127.093 59.6926C126.59 59.2704 125.905 59.0593 125.04 59.0593C124.154 59.0593 123.379 59.2704 122.715 59.6926C122.071 60.0956 121.749 60.8057 121.749 61.8227V70.1129H118.246V61.8227C118.246 60.8057 117.955 60.0956 117.371 59.6926C116.807 59.2896 116.133 59.0881 115.348 59.0881C114.784 59.0881 114.241 59.1745 113.718 59.3472C113.214 59.5199 112.802 59.8078 112.48 60.2108C112.158 60.5945 111.997 61.1319 111.997 61.8227V70.1129H108.373V55.7202H111.997V56.8141C112.48 56.3535 113.033 56.0369 113.657 55.8642C114.301 55.6722 114.935 55.5763 115.559 55.5763C116.485 55.5763 117.361 55.7395 118.186 56.0657C119.031 56.3728 119.706 56.8429 120.209 57.4761C120.732 56.8429 121.477 56.3728 122.443 56.0657C123.409 55.7395 124.345 55.5763 125.251 55.5763C126.378 55.5763 127.415 55.8449 128.361 56.3823C129.307 56.9004 130.062 57.6296 130.625 58.57C131.209 59.4911 131.501 60.5754 131.501 61.8227V70.1129ZM157.359 70.1129H153.736V61.8227C153.736 60.8057 153.474 60.0956 152.951 59.6926C152.448 59.2704 151.763 59.0593 150.898 59.0593C150.012 59.0593 149.237 59.2704 148.573 59.6926C147.929 60.0956 147.607 60.8057 147.607 61.8227V70.1129H144.104V61.8227C144.104 60.8057 143.813 60.0956 143.229 59.6926C142.665 59.2896 141.991 59.0881 141.206 59.0881C140.643 59.0881 140.099 59.1745 139.576 59.3472C139.073 59.5199 138.66 59.8078 138.338 60.2108C138.016 60.5945 137.855 61.1319 137.855 61.8227V70.1129H134.232V55.7202H137.855V56.8141C138.338 56.3535 138.891 56.0369 139.515 55.8642C140.159 55.6722 140.793 55.5763 141.417 55.5763C142.343 55.5763 143.219 55.7395 144.044 56.0657C144.889 56.3728 145.564 56.8429 146.067 57.4761C146.59 56.8429 147.335 56.3728 148.301 56.0657C149.267 55.7395 150.203 55.5763 151.109 55.5763C152.236 55.5763 153.273 55.8449 154.219 56.3823C155.165 56.9004 155.92 57.6296 156.483 58.57C157.067 59.4911 157.359 60.5754 157.359 61.8227V70.1129ZM167.094 70.4871C165.645 70.4871 164.367 70.1897 163.26 69.5948C162.173 68.9808 161.318 68.1363 160.693 67.0617C160.09 65.9678 159.788 64.7013 159.788 63.262C159.788 60.7289 160.452 58.8195 161.78 57.5337C163.129 56.2288 164.9 55.5763 167.094 55.5763C168.523 55.5763 169.781 55.8642 170.868 56.4399C171.975 57.0156 172.841 57.8791 173.465 59.0306C174.089 60.1627 174.401 61.5732 174.401 63.262C174.401 64.7013 174.089 65.9678 173.465 67.0617C172.841 68.1363 171.975 68.9808 170.868 69.5948C169.781 70.1897 168.523 70.4871 167.094 70.4871ZM167.094 67.1768C167.92 67.1768 168.614 66.9946 169.178 66.6299C169.761 66.2461 170.194 65.7568 170.476 65.1618C170.778 64.5669 170.929 63.9336 170.929 63.262C170.929 62.053 170.597 61.0263 169.932 60.182C169.288 59.3184 168.342 58.8866 167.094 58.8866C165.887 58.8866 164.941 59.2992 164.256 60.1244C163.592 60.9496 163.26 61.9954 163.26 63.262C163.26 63.9528 163.411 64.5957 163.713 65.1906C164.015 65.7856 164.448 66.2652 165.011 66.6299C165.595 66.9946 166.289 67.1768 167.094 67.1768Z" fill="#F5F9FB"/>
<mask id="mask0_52_28" style="mask-type:luminance" maskUnits="userSpaceOnUse" x="2" y="44" width="178" height="32">
<path d="M179.665 44.8111H2.35693V75.6133H179.665V44.8111Z" fill="white"/>
<path d="M7.71289 70.1129V49.9632H15.744C16.8511 49.9632 17.8173 50.2318 18.6425 50.7692C19.4677 51.2873 20.1018 51.9781 20.5447 52.8417C21.0075 53.7053 21.2391 54.6456 21.2391 55.6627C21.2391 56.2767 21.1385 56.91 20.9372 57.5625C20.7358 58.215 20.4339 58.8195 20.0314 59.376C20.7158 59.9134 21.2491 60.585 21.6316 61.391C22.0141 62.1969 22.2052 63.0605 22.2052 63.9816C22.2052 64.7301 22.0543 65.4689 21.7524 66.1981C21.4706 66.9273 21.0679 67.5893 20.5447 68.1843C20.0414 68.76 19.4477 69.2301 18.7633 69.5948C18.099 69.9402 17.3845 70.1129 16.6196 70.1129H7.71289ZM11.4265 58.3109H15.6535C16.0158 58.3109 16.3378 58.1765 16.6196 57.9079C16.9014 57.6393 17.1228 57.3034 17.2839 56.9004C17.465 56.4974 17.5556 56.0849 17.5556 55.6627C17.5556 55.1062 17.3946 54.6169 17.0725 54.1946C16.7505 53.7724 16.3076 53.5613 15.744 53.5613H11.4265V58.3109ZM11.4265 66.5148H16.6196C16.9417 66.5148 17.2436 66.3901 17.5254 66.1405C17.8072 65.8719 18.0387 65.5456 18.2198 65.1618C18.401 64.7781 18.4915 64.3846 18.4915 63.9816C18.4915 63.3676 18.3205 62.8495 17.9783 62.4272C17.6562 61.9859 17.2335 61.7652 16.7102 61.7652H11.4265V66.5148ZM24.932 70.1129V55.7202H28.5249V56.7853C29.3099 56.0176 30.2458 55.6434 31.3327 55.6627C32.4398 55.6819 33.6575 55.8929 34.986 56.2959L33.2349 59.2608C32.47 59.0113 31.7152 58.9347 30.9704 59.0306C30.2458 59.1264 29.652 59.3377 29.1891 59.6638C28.7262 59.99 28.5047 60.3835 28.5249 60.844V70.1129H24.932ZM50.0604 64.2407H39.4931C39.5737 65.1043 39.9158 65.7663 40.5197 66.2269C41.1235 66.6875 41.8683 66.9561 42.7539 67.0329C43.6395 67.0905 44.5452 66.9753 45.4712 66.6875C46.4172 66.3804 47.2625 65.9198 48.0074 65.3058L50 67.9252C48.8929 68.808 47.7658 69.4413 46.6185 69.8251C45.4914 70.1897 44.3743 70.372 43.2672 70.372C40.7108 70.372 38.7887 69.6907 37.5004 68.3282C36.2324 66.9658 35.5983 65.0372 35.5983 62.5424C35.5983 61.1224 35.8902 59.8846 36.4739 58.8291C37.0777 57.7735 37.9231 56.958 39.01 56.3823C40.1172 55.8066 41.4154 55.5283 42.9048 55.5475C46.1656 55.5858 48.3395 56.8045 49.4264 59.2033C49.7283 59.8941 49.9195 60.6521 50 61.4773C50.1006 62.3026 50.1208 63.2237 50.0604 64.2407ZM43.237 58.7715C42.0091 58.7715 41.0731 59.0881 40.4291 59.7214C39.805 60.3547 39.4931 61.0551 39.4931 61.8227H46.9506C46.9506 61.036 46.6285 60.3354 45.9845 59.7214C45.3604 59.0881 44.4447 58.7715 43.237 58.7715ZM55.0579 54.0219C54.4341 54.0219 53.9106 53.8204 53.4879 53.4174C53.0652 53.0144 52.8539 52.5155 52.8539 51.9206C52.8539 51.3449 53.0652 50.8555 53.4879 50.4525C53.9106 50.0495 54.4341 49.848 55.0579 49.848C55.6618 49.848 56.175 50.0495 56.5977 50.4525C57.0204 50.8555 57.2318 51.3449 57.2318 51.9206C57.2318 52.5155 57.0204 53.0144 56.5977 53.4174C56.175 53.8204 55.6618 54.0219 55.0579 54.0219ZM56.7185 70.1129H53.3973V55.7202H56.7185V70.1129ZM71.7277 70.1129H59.9527V67.4359L67.1989 59.0306H60.1641V55.7202H71.7277V58.5124L64.542 66.8026H71.7277V70.1129ZM87.5402 70.1129H83.9172V61.8227C83.9172 60.844 83.6454 60.1339 83.102 59.6926C82.5785 59.2513 81.8539 59.0306 80.9281 59.0306C80.0827 59.0306 79.3983 59.2896 78.875 59.8078C78.3718 60.3066 78.1202 60.8345 78.1202 61.391V70.1129H74.4972V49.9632H78.1202V56.4974C78.6033 56.1137 79.177 55.8642 79.8412 55.749C80.5254 55.6146 81.23 55.5763 81.9547 55.6339C83.7862 55.8449 85.175 56.5167 86.1212 57.6489C87.0672 58.762 87.5402 60.1532 87.5402 61.8227V70.1129ZM105.363 70.1129H101.739V49.9632H105.363V70.1129ZM131.501 70.1129H127.878V61.8227C127.878 60.8057 127.616 60.0956 127.093 59.6926C126.59 59.2704 125.905 59.0593 125.04 59.0593C124.154 59.0593 123.379 59.2704 122.715 59.6926C122.071 60.0956 121.749 60.8057 121.749 61.8227V70.1129H118.246V61.8227C118.246 60.8057 117.955 60.0956 117.371 59.6926C116.807 59.2896 116.133 59.0881 115.348 59.0881C114.784 59.0881 114.241 59.1745 113.718 59.3472C113.214 59.5199 112.802 59.8078 112.48 60.2108C112.158 60.5945 111.997 61.1319 111.997 61.8227V70.1129H108.373V55.7202H111.997V56.8141C112.48 56.3535 113.033 56.0369 113.657 55.8642C114.301 55.6722 114.935 55.5763 115.559 55.5763C116.485 55.5763 117.361 55.7395 118.186 56.0657C119.031 56.3728 119.706 56.8429 120.209 57.4761C120.732 56.8429 121.477 56.3728 122.443 56.0657C123.409 55.7395 124.345 55.5763 125.251 55.5763C126.378 55.5763 127.415 55.8449 128.361 56.3823C129.307 56.9004 130.062 57.6296 130.625 58.57C131.209 59.4911 131.501 60.5754 131.501 61.8227V70.1129ZM157.359 70.1129H153.736V61.8227C153.736 60.8057 153.474 60.0956 152.951 59.6926C152.448 59.2704 151.763 59.0593 150.898 59.0593C150.012 59.0593 149.237 59.2704 148.573 59.6926C147.929 60.0956 147.607 60.8057 147.607 61.8227V70.1129H144.104V61.8227C144.104 60.8057 143.813 60.0956 143.229 59.6926C142.665 59.2896 141.991 59.0881 141.206 59.0881C140.643 59.0881 140.099 59.1745 139.576 59.3472C139.073 59.5199 138.66 59.8078 138.338 60.2108C138.016 60.5945 137.855 61.1319 137.855 61.8227V70.1129H134.232V55.7202H137.855V56.8141C138.338 56.3535 138.891 56.0369 139.515 55.8642C140.159 55.6722 140.793 55.5763 141.417 55.5763C142.343 55.5763 143.219 55.7395 144.044 56.0657C144.889 56.3728 145.564 56.8429 146.067 57.4761C146.59 56.8429 147.335 56.3728 148.301 56.0657C149.267 55.7395 150.203 55.5763 151.109 55.5763C152.236 55.5763 153.273 55.8449 154.219 56.3823C155.165 56.9004 155.92 57.6296 156.483 58.57C157.067 59.4911 157.359 60.5754 157.359 61.8227V70.1129ZM167.094 70.4871C165.645 70.4871 164.367 70.1897 163.26 69.5948C162.173 68.9808 161.318 68.1363 160.693 67.0617C160.09 65.9678 159.788 64.7013 159.788 63.262C159.788 60.7289 160.452 58.8195 161.78 57.5337C163.129 56.2288 164.9 55.5763 167.094 55.5763C168.523 55.5763 169.781 55.8642 170.868 56.4399C171.975 57.0156 172.841 57.8791 173.465 59.0306C174.089 60.1627 174.401 61.5732 174.401 63.262C174.401 64.7013 174.089 65.9678 173.465 67.0617C172.841 68.1363 171.975 68.9808 170.868 69.5948C169.781 70.1897 168.523 70.4871 167.094 70.4871ZM167.094 67.1768C167.92 67.1768 168.614 66.9946 169.178 66.6299C169.761 66.2461 170.194 65.7568 170.476 65.1618C170.778 64.5669 170.929 63.9336 170.929 63.262C170.929 62.053 170.597 61.0263 169.932 60.182C169.288 59.3184 168.342 58.8866 167.094 58.8866C165.887 58.8866 164.941 59.2992 164.256 60.1244C163.592 60.9496 163.26 61.9954 163.26 63.262C163.26 63.9528 163.411 64.5957 163.713 65.1906C164.015 65.7856 164.448 66.2652 165.011 66.6299C165.595 66.9946 166.289 67.1768 167.094 67.1768Z" fill="black"/>
</mask>
<g mask="url(#mask0_52_28)">
<path d="M7.71282 70.1129H2.52051V75.0632H7.71282V70.1129ZM7.71282 49.9631V45.0128H2.52051V49.9631H7.71282ZM18.6424 50.7691L15.7142 54.8572L15.7502 54.8807L15.7867 54.9036L18.6424 50.7691ZM20.5446 52.8417L15.8799 55.016L15.9001 55.0554L15.9211 55.0946L20.5446 52.8417ZM20.0313 59.3759L15.7569 56.5654L13.05 60.3075L16.7305 63.1972L20.0313 59.3759ZM21.7523 66.1981L16.9226 64.3806L16.9007 64.4334L16.8801 64.4867L21.7523 66.1981ZM20.5446 68.1843L16.5663 65.0032L16.561 65.0091L16.5557 65.0151L20.5446 68.1843ZM18.7632 69.5948L21.2496 73.9406L21.2729 73.9285L21.2961 73.9162L18.7632 69.5948ZM11.4265 58.3109H6.23416V63.2612H11.4265V58.3109ZM17.2838 56.9004L12.5113 54.9503L12.4694 55.0435L12.4316 55.1381L17.2838 56.9004ZM11.4265 53.5613V48.611H6.23416V53.5613H11.4265ZM11.4265 66.5147H6.23416V71.4651H11.4265V66.5147ZM17.5253 66.1405L21.0584 69.768L21.1288 69.7057L21.1969 69.641L17.5253 66.1405ZM17.9782 62.4272L13.7158 65.2542L13.7901 65.356L13.8696 65.4541L17.9782 62.4272ZM11.4265 61.7651V56.8148H6.23416V61.7651H11.4265ZM7.71282 70.1129H12.9051V49.9631H7.71282H2.52051V70.1129H7.71282ZM7.71282 49.9631V54.9135H15.744V49.9631V45.0128H7.71282V49.9631ZM15.744 49.9631V54.9135C15.8003 54.9135 15.8341 54.917 15.8485 54.9188C15.8625 54.9206 15.8602 54.9212 15.845 54.917C15.8296 54.9128 15.8072 54.9051 15.7811 54.8933C15.755 54.8816 15.7321 54.8687 15.7142 54.8572L18.6424 50.7691L21.5707 46.6811C19.7905 45.5221 17.7785 45.0128 15.744 45.0128V49.9631ZM18.6424 50.7691L15.7867 54.9036C15.8049 54.915 15.8151 54.9228 15.8198 54.9269C15.8244 54.9307 15.8271 54.9333 15.8293 54.9357C15.831 54.9375 15.85 54.9577 15.8799 55.016L20.5446 52.8417L25.2092 50.6674C24.3671 49.025 23.1159 47.6504 21.4982 46.6347L18.6424 50.7691ZM20.5446 52.8417L15.9211 55.0946C15.9918 55.2265 16.0467 55.3896 16.0467 55.6626H21.239H26.4313C26.4313 53.9016 26.0232 52.184 25.168 50.5887L20.5446 52.8417ZM21.239 55.6626H16.0467C16.0467 55.7561 16.032 55.9186 15.9557 56.1657L20.9371 57.5625L25.9184 58.9594C26.2448 57.9015 26.4313 56.7974 26.4313 55.6626H21.239ZM20.9371 57.5625L15.9557 56.1657C15.909 56.3172 15.8447 56.4441 15.7569 56.5654L20.0313 59.3759L24.3057 62.1865C25.023 61.1947 25.5627 60.1126 25.9184 58.9594L20.9371 57.5625ZM20.0313 59.3759L16.7305 63.1972C16.7728 63.2304 16.8301 63.2823 16.9007 63.4314L21.6315 61.3909L26.3623 59.3506C25.668 57.8875 24.6584 56.5961 23.3321 55.5546L20.0313 59.3759ZM21.6315 61.3909L16.9007 63.4314C16.9664 63.5696 17.0128 63.7345 17.0128 63.9816H22.2052H27.3975C27.3975 62.3865 27.0615 60.8242 26.3623 59.3506L21.6315 61.3909ZM22.2052 63.9816H17.0128C17.0128 64.0784 16.9964 64.2022 16.9226 64.3806L21.7523 66.1981L26.5819 68.0158C27.1119 66.7356 27.3975 65.3816 27.3975 63.9816H22.2052ZM21.7523 66.1981L16.8801 64.4867C16.805 64.6811 16.7047 64.8457 16.5663 65.0032L20.5446 68.1843L24.5229 71.3655C25.4311 70.3329 26.1359 69.1736 26.6244 67.9094L21.7523 66.1981ZM20.5446 68.1843L16.5557 65.0151C16.4586 65.1262 16.3579 65.2054 16.2303 65.2735L18.7632 69.5948L21.2961 73.9162C22.5373 73.2549 23.624 72.3937 24.5334 71.3534L20.5446 68.1843ZM18.7632 69.5948L16.2769 65.2489C16.3166 65.2282 16.3776 65.2031 16.4531 65.1849C16.5284 65.1666 16.5879 65.1625 16.6195 65.1625V70.1129V75.0632C18.2433 75.0632 19.814 74.6872 21.2496 73.9406L18.7632 69.5948ZM16.6195 70.1129V65.1625H7.71282V70.1129V75.0632H16.6195V70.1129ZM11.4265 58.3109V63.2612H15.6534V58.3109V53.3605H11.4265V58.3109ZM15.6534 58.3109V63.2612C17.537 63.2612 19.1424 62.5035 20.2911 61.4083L16.6195 57.9079L12.948 54.4074C13.2042 54.1632 13.5794 53.886 14.0855 53.6748C14.6011 53.4597 15.1407 53.3605 15.6534 53.3605V58.3109ZM16.6195 57.9079L20.2911 61.4083C21.1561 60.5837 21.7494 59.6299 22.1359 58.6627L17.2838 56.9004L12.4316 55.1381C12.4961 54.9769 12.6466 54.6949 12.948 54.4074L16.6195 57.9079ZM17.2838 56.9004L22.0563 58.8505C22.5034 57.8555 22.7479 56.781 22.7479 55.6626H17.5555H12.3632C12.3632 55.3885 12.4264 55.1394 12.5113 54.9503L17.2838 56.9004ZM17.5555 55.6626H22.7479C22.7479 54.1332 22.2829 52.6086 21.2717 51.2829L17.0724 54.1946L12.8732 57.1063C12.7089 56.8909 12.5717 56.6371 12.4805 56.3601C12.3904 56.0862 12.3632 55.8443 12.3632 55.6626H17.5555ZM17.0724 54.1946L21.2717 51.2829C19.9392 49.5361 17.9112 48.611 15.744 48.611V53.5613V58.5117C15.3319 58.5117 14.7703 58.4302 14.1767 58.1473C13.5778 57.8619 13.1488 57.4675 12.8732 57.1063L17.0724 54.1946ZM15.744 53.5613V48.611H11.4265V53.5613V58.5117H15.744V53.5613ZM11.4265 53.5613H6.23416V58.3109H11.4265H16.6188V53.5613H11.4265ZM11.4265 66.5147V71.4651H16.6195V66.5147V61.5644H11.4265V66.5147ZM16.6195 66.5147V71.4651C18.499 71.4651 20.0138 70.693 21.0584 69.768L17.5253 66.1405L13.9922 62.513C14.4733 62.0871 15.3842 61.5644 16.6195 61.5644V66.5147ZM17.5253 66.1405L21.1969 69.641C21.969 68.9048 22.543 68.0653 22.9548 67.1933L18.2197 65.1618L13.4848 63.1303C13.5341 63.0258 13.6453 62.839 13.8538 62.6401L17.5253 66.1405ZM18.2197 65.1618L22.9548 67.1933C23.4236 66.1997 23.6838 65.1162 23.6838 63.9816H18.4915H13.2992C13.2992 63.6531 13.3782 63.3562 13.4848 63.1303L18.2197 65.1618ZM18.4915 63.9816H23.6838C23.6838 62.445 23.235 60.8169 22.0869 59.4003L17.9782 62.4272L13.8696 65.4541C13.6594 65.1948 13.5054 64.9066 13.4105 64.6189C13.318 64.3389 13.2992 64.114 13.2992 63.9816H18.4915ZM17.9782 62.4272L22.2405 59.6002C21.0365 57.9501 19.0827 56.8148 16.7101 56.8148V61.7651V66.7155C16.177 66.7155 15.5436 66.5952 14.9257 66.2725C14.3221 65.9573 13.9356 65.5555 13.7158 65.2542L17.9782 62.4272ZM16.7101 61.7651V56.8148H11.4265V61.7651V66.7155H16.7101V61.7651ZM11.4265 61.7651H6.23416V66.5147H11.4265H16.6188V61.7651H11.4265ZM24.9319 70.1129H19.7396V75.0632H24.9319V70.1129ZM24.9319 55.7202V50.7699H19.7396V55.7202H24.9319ZM28.5248 55.7202H33.7171V50.7699H28.5248V55.7202ZM28.5248 56.7853H23.3325V68.9538L32.2425 60.2412L28.5248 56.7853ZM31.3327 55.6626L31.2365 60.6121L31.2382 60.6123L31.3327 55.6626ZM34.9859 56.2959L39.5102 58.7249L42.6415 53.4234L36.5602 51.5786L34.9859 56.2959ZM33.2348 59.2608L31.554 63.9446L35.6402 65.2773L37.759 61.6898L33.2348 59.2608ZM30.9704 59.0305L30.275 54.1247L30.2655 54.126L30.2561 54.1273L30.9704 59.0305ZM28.5248 60.844H33.7171V60.741L33.7125 60.6379L28.5248 60.844ZM28.5248 70.1129V75.0632H33.7171V70.1129H28.5248ZM24.9319 70.1129H30.1242V55.7202H24.9319H19.7396V70.1129H24.9319ZM24.9319 55.7202V60.6706H28.5248V55.7202V50.7699H24.9319V55.7202ZM28.5248 55.7202H23.3325V56.7853H28.5248H33.7171V55.7202H28.5248ZM28.5248 56.7853L32.2425 60.2412C32.2015 60.2811 32.0636 60.3981 31.8234 60.4942C31.5794 60.5917 31.3627 60.6145 31.2365 60.6121L31.3327 55.6626L31.4288 50.7132C28.8542 50.6677 26.5538 51.6213 24.8071 53.3294L28.5248 56.7853ZM31.3327 55.6626L31.2382 60.6123C31.7325 60.6207 32.444 60.7197 33.4115 61.0132L34.9859 56.2959L36.5602 51.5786C34.8707 51.0661 33.1469 50.7429 31.4271 50.713L31.3327 55.6626ZM34.9859 56.2959L30.4615 53.8669L28.7104 56.8318L33.2348 59.2608L37.759 61.6898L39.5102 58.7249L34.9859 56.2959ZM33.2348 59.2608L34.9154 54.577C33.4465 54.0978 31.8786 53.9181 30.275 54.1247L30.9704 59.0305L31.6657 63.9363C31.645 63.9389 31.6229 63.9405 31.6005 63.9409C31.5782 63.9411 31.559 63.94 31.5442 63.9385C31.5129 63.9354 31.5142 63.9316 31.554 63.9446L33.2348 59.2608ZM30.9704 59.0305L30.2561 54.1273C28.8998 54.3068 27.4271 54.7496 26.1027 55.6828L29.189 59.6638L32.2752 63.6448C31.8769 63.9255 31.5915 63.9462 31.6846 63.9338L30.9704 59.0305ZM29.189 59.6638L26.1027 55.6828C24.5573 56.7719 23.2307 58.6182 23.3369 61.0501L28.5248 60.844L33.7125 60.6379C33.74 61.2633 33.5948 61.9334 33.2509 62.5442C32.9252 63.123 32.5227 63.4704 32.2752 63.6448L29.189 59.6638ZM28.5248 60.844H23.3325V70.1129H28.5248H33.7171V60.844H28.5248ZM28.5248 70.1129V65.1625H24.9319V70.1129V75.0632H28.5248V70.1129ZM50.0604 64.2407V69.191H54.9671L55.2444 64.5205L50.0604 64.2407ZM39.493 64.2407V59.2903H33.8188L34.3211 64.6791L39.493 64.2407ZM42.7538 67.0329L42.2838 71.9629L42.3421 71.968L42.4005 71.9718L42.7538 67.0329ZM45.4711 66.6874L47.0809 71.3939L47.1127 71.384L47.1444 71.3738L45.4711 66.6874ZM48.0073 65.3057L52.2105 62.3993L48.8894 58.0335L44.6107 61.5614L48.0073 65.3057ZM50 67.9252L53.3311 71.7225L57.048 68.7587L54.2032 65.0188L50 67.9252ZM46.6184 69.825L48.2867 74.5128L48.3121 74.5048L48.3375 74.4961L46.6184 69.825ZM37.5004 68.3282L33.6165 71.6138L33.63 71.6282L33.6436 71.6427L37.5004 68.3282ZM36.4738 58.829L31.9155 56.4585L31.898 56.4892L31.8809 56.5201L36.4738 58.829ZM39.01 56.3823L36.5236 52.0364L36.5059 52.0456L36.4884 52.0549L39.01 56.3823ZM42.9048 55.5475L42.8346 60.4975H42.8377H42.8407L42.9048 55.5475ZM49.4263 59.2032L54.2192 57.2992L54.2063 57.2697L54.1929 57.24L49.4263 59.2032ZM50 61.4773L44.83 61.9358L44.8355 61.9925L44.8425 62.0491L50 61.4773ZM40.429 59.7214L36.7015 56.2752L36.6729 56.3034L36.6446 56.332L40.429 59.7214ZM39.493 61.8227H34.3007V66.7731H39.493V61.8227ZM46.9505 61.8227V66.7731H52.1428V61.8227H46.9505ZM45.9844 59.7214L42.2 63.1107L42.2555 63.1672L42.3129 63.2218L45.9844 59.7214ZM50.0604 64.2407V59.2903H39.493V64.2407V69.191H50.0604V64.2407ZM39.493 64.2407L34.3211 64.6791C34.5032 66.6311 35.3711 68.6395 37.2759 70.0925L40.5196 66.2269L43.7632 62.3614C44.0565 62.5851 44.3025 62.8773 44.4677 63.1969C44.6246 63.5005 44.6582 63.7299 44.665 63.8023L39.493 64.2407ZM40.5196 66.2269L37.2759 70.0925C38.7892 71.2465 40.5404 71.8118 42.2838 71.9629L42.7538 67.0329L43.224 62.1029C43.1952 62.1003 43.2536 62.1023 43.3686 62.1437C43.4886 62.1872 43.6286 62.2587 43.7632 62.3614L40.5196 66.2269ZM42.7538 67.0329L42.4005 71.9718C44.0119 72.0765 45.584 71.8593 47.0809 71.3939L45.4711 66.6874L43.8613 61.9809C43.5065 62.0913 43.2671 62.1043 43.1071 62.0941L42.7538 67.0329ZM45.4711 66.6874L47.1444 71.3738C48.7134 70.8644 50.1459 70.0872 51.4038 69.05L48.0073 65.3057L44.6107 61.5614C44.3792 61.7525 44.1209 61.8964 43.7979 62.0011L45.4711 66.6874ZM48.0073 65.3057L43.804 68.2121L45.7967 70.8316L50 67.9252L54.2032 65.0188L52.2105 62.3993L48.0073 65.3057ZM50 67.9252L46.6688 64.1279C45.9525 64.6992 45.36 64.9997 44.8994 65.1539L46.6184 69.825L48.3375 74.4961C50.1715 73.8827 51.8334 72.9168 53.3311 71.7225L50 67.9252ZM46.6184 69.825L44.9502 65.1372C44.3198 65.3411 43.7655 65.4216 43.2671 65.4216V70.372V75.3223C44.9827 75.3223 46.6627 75.0383 48.2867 74.5128L46.6184 69.825ZM43.2671 70.372V65.4216C41.673 65.4216 41.3652 65.0223 41.3571 65.0137L37.5004 68.3282L33.6436 71.6427C36.2119 74.3592 39.7486 75.3223 43.2671 75.3223V70.372ZM37.5004 68.3282L41.3842 65.0426C41.2269 64.8738 40.7905 64.2761 40.7905 62.5423H35.5982H30.4059C30.4059 65.7982 31.2377 69.0577 33.6165 71.6138L37.5004 68.3282ZM35.5982 62.5423H40.7905C40.7905 61.7745 40.945 61.3581 41.0667 61.1379L36.4738 58.829L31.8809 56.5201C30.8352 58.411 30.4059 60.47 30.4059 62.5423H35.5982ZM36.4738 58.829L41.0321 61.1995C41.1723 60.9547 41.3171 60.8233 41.5315 60.7096L39.01 56.3823L36.4884 52.0549C34.529 53.0927 32.9832 54.5924 31.9155 56.4585L36.4738 58.829ZM39.01 56.3823L41.4963 60.7281C41.6886 60.6282 42.0752 60.4876 42.8346 60.4975L42.9048 55.5475L42.975 50.5975C40.7554 50.5691 38.5454 50.9849 36.5236 52.0364L39.01 56.3823ZM42.9048 55.5475L42.8407 60.4975C43.8261 60.509 44.2373 60.6949 44.349 60.7576C44.4042 60.7884 44.4373 60.8163 44.4694 60.8521C44.5046 60.8909 44.5761 60.9817 44.6598 61.1665L49.4263 59.2032L54.1929 57.24C53.2525 55.1645 51.733 53.4115 49.6125 52.2229C47.5503 51.0669 45.2442 50.6243 42.9688 50.5975L42.9048 55.5475ZM49.4263 59.2032L44.6334 61.1073C44.7136 61.2906 44.7929 61.555 44.83 61.9358L50 61.4773L55.17 61.0187C55.0461 59.7492 54.7428 58.4975 54.2192 57.2992L49.4263 59.2032ZM50 61.4773L44.8425 62.0491C44.9019 62.5368 44.9234 63.1668 44.8763 63.9609L50.0604 64.2407L55.2444 64.5205C55.318 63.2803 55.2994 62.0682 55.1575 60.9056L50 61.4773ZM43.2369 58.7715V53.8211C41.0821 53.8211 38.6125 54.3964 36.7015 56.2752L40.429 59.7214L44.1565 63.1675C43.8819 63.4376 43.5792 63.5969 43.3504 63.6743C43.1469 63.7433 43.08 63.7218 43.2369 63.7218V58.7715ZM40.429 59.7214L36.6446 56.332C35.245 57.7524 34.3007 59.6271 34.3007 61.8227H39.493H44.6854C44.6854 62.0979 44.6254 62.3894 44.5063 62.6566C44.3917 62.9136 44.2617 63.0618 44.2134 63.1107L40.429 59.7214ZM39.493 61.8227V66.7731H46.9505V61.8227V56.8724H39.493V61.8227ZM46.9505 61.8227H52.1428C52.1428 59.5806 51.1629 57.6576 49.6559 56.2209L45.9844 59.7214L42.3129 63.2218C42.2394 63.1518 42.0846 62.98 41.9536 62.6947C41.818 62.4001 41.7582 62.0933 41.7582 61.8227H46.9505ZM45.9844 59.7214L49.7688 56.332C47.8732 54.4082 45.3905 53.8211 43.2369 53.8211V58.7715V63.7218C43.3763 63.7218 43.2865 63.7412 43.0594 63.6628C42.8054 63.5749 42.4842 63.3991 42.2 63.1107L45.9844 59.7214ZM56.7184 70.1129V75.0632H61.9107V70.1129H56.7184ZM53.3973 70.1129H48.205V75.0632H53.3973V70.1129ZM53.3973 55.7202V50.7699H48.205V55.7202H53.3973ZM56.7184 55.7202H61.9107V50.7699H56.7184V55.7202ZM55.0578 54.0219V49.0715C55.3419 49.0715 55.7234 49.1196 56.1417 49.2805C56.5644 49.4433 56.9073 49.6766 57.1594 49.9169L53.4878 53.4174L49.8163 56.9178C51.2594 58.2935 53.124 58.9722 55.0578 58.9722V54.0219ZM53.4878 53.4174L57.1594 49.9169C57.4115 50.1573 57.6561 50.4842 57.8269 50.8872C57.9957 51.286 58.0461 51.6499 58.0461 51.9205H52.8538H47.6615C47.6615 53.7643 48.3734 55.542 49.8163 56.9178L53.4878 53.4174ZM52.8538 51.9205H58.0461C58.0461 52.2221 57.988 52.6026 57.8136 53.0067C57.6386 53.4115 57.3952 53.7282 57.1594 53.9529L53.4878 50.4525L49.8163 46.952C48.4088 48.294 47.6615 50.0469 47.6615 51.9205H52.8538ZM53.4878 50.4525L57.1594 53.9529C56.9073 54.1933 56.5644 54.4265 56.1417 54.5893C55.7234 54.7503 55.3419 54.7983 55.0578 54.7983V49.848V44.8976C53.124 44.8976 51.2594 45.5764 49.8163 46.952L53.4878 50.4525ZM55.0578 49.848V54.7983C54.7415 54.7983 54.3425 54.743 53.9188 54.5767C53.494 54.4098 53.1619 54.1777 52.9261 53.9529L56.5977 50.4525L60.2692 46.952C58.8617 45.6101 57.023 44.8976 55.0578 44.8976V49.848ZM56.5977 50.4525L52.9261 53.9529C52.6905 53.7282 52.4469 53.4115 52.2721 53.0067C52.0977 52.6026 52.0394 52.2221 52.0394 51.9205H57.2317H62.424C62.424 50.0469 61.6767 48.294 60.2692 46.952L56.5977 50.4525ZM57.2317 51.9205H52.0394C52.0394 51.6499 52.0898 51.286 52.2586 50.8872C52.4294 50.4842 52.674 50.1573 52.9261 49.9169L56.5977 53.4174L60.2692 56.9178C61.7123 55.542 62.424 53.7643 62.424 51.9205H57.2317ZM56.5977 53.4174L52.9261 49.9169C53.1619 49.6921 53.494 49.46 53.9188 49.2932C54.3425 49.1269 54.7415 49.0715 55.0578 49.0715V54.0219V58.9722C57.023 58.9722 58.8617 58.2597 60.2692 56.9178L56.5977 53.4174ZM56.7184 70.1129V65.1625H53.3973V70.1129V75.0632H56.7184V70.1129ZM53.3973 70.1129H58.5896V55.7202H53.3973H48.205V70.1129H53.3973ZM53.3973 55.7202V60.6706H56.7184V55.7202V50.7699H53.3973V55.7202ZM56.7184 55.7202H51.5261V70.1129H56.7184H61.9107V55.7202H56.7184ZM71.7277 70.1129V75.0632H76.92V70.1129H71.7277ZM59.9527 70.1129H54.7603V75.0632H59.9527V70.1129ZM59.9527 67.4358L55.9413 64.2926L54.7603 65.6625V67.4358H59.9527ZM67.1988 59.0305L71.21 62.1738L78.1875 54.0802H67.1988V59.0305ZM60.164 59.0305H54.9717V63.9809H60.164V59.0305ZM60.164 55.7202V50.7699H54.9717V55.7202H60.164ZM71.7277 55.7202H76.92V50.7699H71.7277V55.7202ZM71.7277 58.5124L75.7302 61.6659L76.92 60.2932V58.5124H71.7277ZM64.5419 66.8026L60.5394 63.6492L53.5152 71.7529H64.5419V66.8026ZM71.7277 66.8026H76.92V61.8522H71.7277V66.8026ZM71.7277 70.1129V65.1625H59.9527V70.1129V75.0632H71.7277V70.1129ZM59.9527 70.1129H65.145V67.4358H59.9527H54.7603V70.1129H59.9527ZM59.9527 67.4358L63.9638 70.5791L71.21 62.1738L67.1988 59.0305L63.1875 55.8872L55.9413 64.2926L59.9527 67.4358ZM67.1988 59.0305V54.0802H60.164V59.0305V63.9809H67.1988V59.0305ZM60.164 59.0305H65.3563V55.7202H60.164H54.9717V59.0305H60.164ZM60.164 55.7202V60.6706H71.7277V55.7202V50.7699H60.164V55.7202ZM71.7277 55.7202H66.5353V58.5124H71.7277H76.92V55.7202H71.7277ZM71.7277 58.5124L67.7252 55.359L60.5394 63.6492L64.5419 66.8026L68.5444 69.9561L75.7302 61.6659L71.7277 58.5124ZM64.5419 66.8026V71.7529H71.7277V66.8026V61.8522H64.5419V66.8026ZM71.7277 66.8026H66.5353V70.1129H71.7277H76.92V66.8026H71.7277ZM87.5402 70.1129V75.0632H92.7325V70.1129H87.5402ZM83.9171 70.1129H78.7248V75.0632H83.9171V70.1129ZM83.1019 59.6926L79.6615 63.4004L79.6978 63.431L79.7348 63.4611L83.1019 59.6926ZM78.875 59.8077L75.1348 56.374L75.1334 56.3753L75.1321 56.3766L78.875 59.8077ZM78.1202 70.1129V75.0632H83.3125V70.1129H78.1202ZM74.4971 70.1129H69.3048V75.0632H74.4971V70.1129ZM74.4971 49.9631V45.0128H69.3048V49.9631H74.4971ZM78.1202 49.9631H83.3125V45.0128H78.1202V49.9631ZM78.1202 56.4974H72.9278V67.0666L81.4442 60.3004L78.1202 56.4974ZM79.8411 55.749L80.77 60.6196L80.8292 60.6093L80.888 60.5976L79.8411 55.749ZM81.9546 55.6339L82.5777 50.7193L82.4819 50.7083L82.3857 50.7006L81.9546 55.6339ZM86.1211 57.6488L82.0598 60.7333L82.0734 60.7494L82.0871 60.7655L86.1211 57.6488ZM87.5402 70.1129V65.1625H83.9171V70.1129V75.0632H87.5402V70.1129ZM83.9171 70.1129H89.1094V61.8227H83.9171H78.7248V70.1129H83.9171ZM83.9171 61.8227H89.1094C89.1094 60.0485 88.6073 57.6609 86.4688 55.9241L83.1019 59.6926L79.7348 63.4611C79.2505 63.0676 78.9723 62.6105 78.8355 62.253C78.7121 61.9305 78.7248 61.7501 78.7248 61.8227H83.9171ZM83.1019 59.6926L86.5421 55.9848C84.7967 54.5127 82.7023 54.0802 80.928 54.0802V59.0305V63.9809C81.0055 63.9809 80.3603 63.9897 79.6615 63.4004L83.1019 59.6926ZM80.928 59.0305V54.0802C78.8584 54.0802 76.7594 54.7655 75.1348 56.374L78.875 59.8077L82.615 63.2414C82.3759 63.4781 82.0602 63.6883 81.6969 63.8258C81.3457 63.9587 81.0653 63.9809 80.928 63.9809V59.0305ZM78.875 59.8077L75.1321 56.3766C73.9373 57.5614 72.9278 59.261 72.9278 61.3909H78.1202H83.3125C83.3125 61.8489 83.2036 62.2741 83.0357 62.6261C82.8759 62.9613 82.6969 63.1602 82.6177 63.2389L78.875 59.8077ZM78.1202 61.3909H72.9278V70.1129H78.1202H83.3125V61.3909H78.1202ZM78.1202 70.1129V65.1625H74.4971V70.1129V75.0632H78.1202V70.1129ZM74.4971 70.1129H79.6894V49.9631H74.4971H69.3048V70.1129H74.4971ZM74.4971 49.9631V54.9135H78.1202V49.9631V45.0128H74.4971V49.9631ZM78.1202 49.9631H72.9278V56.4974H78.1202H83.3125V49.9631H78.1202ZM78.1202 56.4974L81.4442 60.3004C81.3294 60.3915 81.2002 60.4687 81.0675 60.5264C80.9365 60.5833 80.8311 60.609 80.77 60.6196L79.8411 55.749L78.9123 50.8786C77.4334 51.1349 76.018 51.7236 74.7961 52.6944L78.1202 56.4974ZM79.8411 55.749L80.888 60.5976C81.0671 60.5626 81.273 60.5472 81.5232 60.5671L81.9546 55.6339L82.3857 50.7006C81.1869 50.6054 79.9838 50.6668 78.794 50.9004L79.8411 55.749ZM81.9546 55.6339L81.3315 60.5484C81.7542 60.5972 81.9565 60.6795 82.0211 60.7107C82.0532 60.7263 82.0627 60.7345 82.0596 60.7322C82.0561 60.7294 82.0552 60.7278 82.0598 60.7333L86.1211 57.6488L90.1823 54.5644C88.2103 52.2044 85.4532 51.0507 82.5777 50.7193L81.9546 55.6339ZM86.1211 57.6488L82.0871 60.7655C82.1634 60.8554 82.3478 61.0912 82.3478 61.8227H87.5402H92.7325C92.7325 59.2152 91.9707 56.6685 90.1552 54.5321L86.1211 57.6488ZM87.5402 61.8227H82.3478V70.1129H87.5402H92.7325V61.8227H87.5402ZM105.362 70.1129V75.0632H110.555V70.1129H105.362ZM101.739 70.1129H96.5471V75.0632H101.739V70.1129ZM101.739 49.9631V45.0128H96.5471V49.9631H101.739ZM105.362 49.9631H110.555V45.0128H105.362V49.9631ZM105.362 70.1129V65.1625H101.739V70.1129V75.0632H105.362V70.1129ZM101.739 70.1129H106.932V49.9631H101.739H96.5471V70.1129H101.739ZM101.739 49.9631V54.9135H105.362V49.9631V45.0128H101.739V49.9631ZM105.362 49.9631H100.17V70.1129H105.362H110.555V49.9631H105.362ZM131.501 70.1129V75.0632H136.693V70.1129H131.501ZM127.878 70.1129H122.685V75.0632H127.878V70.1129ZM127.093 59.6926L123.662 63.4088L123.745 63.478L123.83 63.5436L127.093 59.6926ZM122.715 59.6926L125.564 63.8313L125.579 63.8215L125.595 63.8115L122.715 59.6926ZM121.749 70.1129V75.0632H126.941V70.1129H121.749ZM118.246 70.1129H113.054V75.0632H118.246V70.1129ZM117.371 59.6926L114.255 63.6529L114.29 63.6778L114.326 63.702L117.371 59.6926ZM113.717 59.3472L112.019 54.6691L111.989 54.6792L111.959 54.6894L113.717 59.3472ZM112.48 60.2107L116.534 63.3032L116.572 63.2574L116.61 63.2108L112.48 60.2107ZM111.997 70.1129V75.0632H117.189V70.1129H111.997ZM108.373 70.1129H103.181V75.0632H108.373V70.1129ZM108.373 55.7202V50.7699H103.181V55.7202H108.373ZM111.997 55.7202H117.189V50.7699H111.997V55.7202ZM111.997 56.814H106.804V68.7653L115.668 60.3145L111.997 56.814ZM113.657 55.8641L115.105 60.6181L115.156 60.6042L115.206 60.5892L113.657 55.8641ZM118.186 56.0656L116.197 60.6385L116.267 60.666L116.338 60.6916L118.186 56.0656ZM120.209 57.4761L116.07 60.4654L120.128 65.5727L124.287 60.5398L120.209 57.4761ZM122.443 56.0656L124.085 60.7619L124.131 60.7474L124.177 60.732L122.443 56.0656ZM128.361 56.3823L125.703 60.6352L125.739 60.6552L125.774 60.6748L128.361 56.3823ZM130.625 58.57L126.117 61.0261L126.148 61.0783L126.181 61.1298L130.625 58.57ZM131.501 70.1129V65.1625H127.878V70.1129V75.0632H131.501V70.1129ZM127.878 70.1129H133.07V61.8227H127.878H122.685V70.1129H127.878ZM127.878 61.8227H133.07C133.07 60.186 132.669 57.623 130.355 55.8416L127.093 59.6926L123.83 63.5436C123.22 63.0739 122.915 62.528 122.783 62.1683C122.664 61.8471 122.685 61.6896 122.685 61.8227H127.878ZM127.093 59.6926L130.523 55.9763C128.822 54.5497 126.791 54.109 125.04 54.109V59.0593V64.0097C125.036 64.0097 124.871 64.0098 124.604 63.9277C124.321 63.8402 123.982 63.6769 123.662 63.4088L127.093 59.6926ZM125.04 59.0593V54.109C123.245 54.109 121.444 54.5508 119.835 55.5737L122.715 59.6926L125.595 63.8115C125.476 63.8872 125.345 63.9438 125.221 63.9776C125.101 64.0102 125.032 64.0097 125.04 64.0097V59.0593ZM122.715 59.6926L119.866 55.5539C117.235 57.2002 116.556 59.8409 116.556 61.8227H121.749H126.941C126.941 61.7875 126.95 62.0647 126.756 62.4923C126.537 62.975 126.136 63.4734 125.564 63.8313L122.715 59.6926ZM121.749 61.8227H116.556V70.1129H121.749H126.941V61.8227H121.749ZM121.749 70.1129V65.1625H118.246V70.1129V75.0632H121.749V70.1129ZM118.246 70.1129H123.439V61.8227H118.246H113.054V70.1129H118.246ZM118.246 61.8227H123.439C123.439 60.0177 122.908 57.4033 120.416 55.6832L117.371 59.6926L114.326 63.702C113.725 63.2876 113.369 62.7609 113.193 62.3337C113.038 61.9564 113.054 61.7378 113.054 61.8227H118.246ZM117.371 59.6926L120.486 55.7323C118.922 54.6135 117.121 54.1377 115.348 54.1377V59.0881V64.0384C115.272 64.0384 115.107 64.028 114.889 63.9629C114.666 63.8962 114.447 63.7896 114.255 63.6529L117.371 59.6926ZM115.348 59.0881V54.1377C114.217 54.1377 113.098 54.313 112.019 54.6691L113.717 59.3472L115.416 64.0252C115.404 64.0291 115.388 64.0331 115.371 64.0359C115.355 64.0384 115.346 64.0384 115.348 64.0384V59.0881ZM113.717 59.3472L111.959 54.6894C110.521 55.183 109.282 56.0436 108.35 57.2106L112.48 60.2107L116.61 63.2108C116.48 63.3731 116.309 63.5396 116.097 63.6877C115.885 63.8357 115.67 63.9385 115.476 64.0049L113.717 59.3472ZM112.48 60.2107L108.425 57.1182C107.119 58.6752 106.804 60.4555 106.804 61.8227H111.997H117.189C117.189 61.8335 117.189 61.9982 117.11 62.2616C117.027 62.5379 116.858 62.9171 116.534 63.3032L112.48 60.2107ZM111.997 61.8227H106.804V70.1129H111.997H117.189V61.8227H111.997ZM111.997 70.1129V65.1625H108.373V70.1129V75.0632H111.997V70.1129ZM108.373 70.1129H113.566V55.7202H108.373H103.181V70.1129H108.373ZM108.373 55.7202V60.6706H111.997V55.7202V50.7699H108.373V55.7202ZM111.997 55.7202H106.804V56.814H111.997H117.189V55.7202H111.997ZM111.997 56.814L115.668 60.3145C115.627 60.3537 115.553 60.4144 115.446 60.476C115.337 60.5384 115.219 60.5866 115.105 60.6181L113.657 55.8641L112.21 51.1101C110.702 51.5274 109.394 52.2948 108.325 53.3136L111.997 56.814ZM113.657 55.8641L115.206 60.5892C115.389 60.5345 115.502 60.5266 115.559 60.5266V55.5763V50.6259C114.369 50.6259 113.213 50.81 112.108 51.1391L113.657 55.8641ZM115.559 55.5763V60.5266C115.828 60.5266 116.026 60.5706 116.197 60.6385L118.186 56.0656L120.175 51.4928C118.696 50.9083 117.142 50.6259 115.559 50.6259V55.5763ZM118.186 56.0656L116.338 60.6916C116.363 60.7008 116.327 60.6907 116.261 60.6443C116.192 60.5961 116.124 60.5332 116.07 60.4654L120.209 57.4761L124.348 54.4868C123.207 53.0511 121.708 52.0476 120.034 51.4396L118.186 56.0656ZM120.209 57.4761L124.287 60.5398C124.188 60.6597 124.089 60.7367 124.027 60.776C123.97 60.8119 123.975 60.7969 124.085 60.7619L122.443 56.0656L120.801 51.3694C119.072 51.9189 117.4 52.8767 116.13 54.4124L120.209 57.4761ZM122.443 56.0656L124.177 60.732C124.658 60.5692 125.008 60.5266 125.251 60.5266V55.5763V50.6259C123.682 50.6259 122.16 50.9096 120.71 51.3993L122.443 56.0656ZM125.251 55.5763V60.5266C125.466 60.5266 125.581 60.5655 125.703 60.6352L128.361 56.3823L131.018 52.1294C129.249 51.1244 127.291 50.6259 125.251 50.6259V55.5763ZM128.361 56.3823L125.774 60.6748C125.886 60.736 125.992 60.8171 126.117 61.0261L130.625 58.57L135.133 56.1138C134.131 54.4423 132.727 53.0648 130.947 52.0898L128.361 56.3823ZM130.625 58.57L126.181 61.1298C126.202 61.1627 126.308 61.3319 126.308 61.8227H131.501H136.693C136.693 59.8187 136.216 57.8195 135.069 56.0101L130.625 58.57ZM131.501 61.8227H126.308V70.1129H131.501H136.693V61.8227H131.501ZM157.359 70.1129V75.0632H162.551V70.1129H157.359ZM153.736 70.1129H148.543V75.0632H153.736V70.1129ZM152.951 59.6926L149.521 63.4088L149.603 63.478L149.688 63.5436L152.951 59.6926ZM148.573 59.6926L151.422 63.8313L151.437 63.8215L151.453 63.8115L148.573 59.6926ZM147.607 70.1129V75.0632H152.799V70.1129H147.607ZM144.104 70.1129H138.912V75.0632H144.104V70.1129ZM143.229 59.6926L140.113 63.6529L140.148 63.6778L140.184 63.702L143.229 59.6926ZM139.576 59.3472L137.877 54.6691L137.847 54.6792L137.817 54.6894L139.576 59.3472ZM138.338 60.2107L142.392 63.3032L142.431 63.2574L142.468 63.2108L138.338 60.2107ZM137.855 70.1129V75.0632H143.047V70.1129H137.855ZM134.232 70.1129H129.039V75.0632H134.232V70.1129ZM134.232 55.7202V50.7699H129.039V55.7202H134.232ZM137.855 55.7202H143.047V50.7699H137.855V55.7202ZM137.855 56.814H132.662V68.7653L141.526 60.3145L137.855 56.814ZM139.515 55.8641L140.963 60.6181L141.014 60.6042L141.064 60.5892L139.515 55.8641ZM144.044 56.0656L142.055 60.6385L142.125 60.666L142.196 60.6916L144.044 56.0656ZM146.067 57.4761L141.928 60.4654L145.986 65.5727L150.146 60.5398L146.067 57.4761ZM148.301 56.0656L149.943 60.7619L149.989 60.7474L150.035 60.732L148.301 56.0656ZM154.219 56.3823L151.561 60.6352L151.597 60.6552L151.632 60.6748L154.219 56.3823ZM156.483 58.57L151.975 61.0261L152.007 61.0783L152.039 61.1298L156.483 58.57ZM157.359 70.1129V65.1625H153.736V70.1129V75.0632H157.359V70.1129ZM153.736 70.1129H158.928V61.8227H153.736H148.543V70.1129H153.736ZM153.736 61.8227H158.928C158.928 60.186 158.527 57.623 156.213 55.8416L152.951 59.6926L149.688 63.5436C149.078 63.0739 148.773 62.528 148.641 62.1683C148.522 61.8471 148.543 61.6896 148.543 61.8227H153.736ZM152.951 59.6926L156.381 55.9763C154.681 54.5497 152.649 54.109 150.898 54.109V59.0593V64.0097C150.895 64.0097 150.729 64.0098 150.462 63.9277C150.179 63.8402 149.84 63.6769 149.521 63.4088L152.951 59.6926ZM150.898 59.0593V54.109C149.103 54.109 147.302 54.5508 145.693 55.5737L148.573 59.6926L151.453 63.8115C151.334 63.8872 151.203 63.9438 151.079 63.9776C150.959 64.0102 150.89 64.0097 150.898 64.0097V59.0593ZM148.573 59.6926L145.724 55.5539C143.093 57.2002 142.414 59.8409 142.414 61.8227H147.607H152.799C152.799 61.7875 152.808 62.0647 152.614 62.4923C152.395 62.975 151.994 63.4734 151.422 63.8313L148.573 59.6926ZM147.607 61.8227H142.414V70.1129H147.607H152.799V61.8227H147.607ZM147.607 70.1129V65.1625H144.104V70.1129V75.0632H147.607V70.1129ZM144.104 70.1129H149.297V61.8227H144.104H138.912V70.1129H144.104ZM144.104 61.8227H149.297C149.297 60.0177 148.766 57.4033 146.274 55.6832L143.229 59.6926L140.184 63.702C139.583 63.2876 139.227 62.7609 139.051 62.3337C138.896 61.9564 138.912 61.7378 138.912 61.8227H144.104ZM143.229 59.6926L146.344 55.7323C144.78 54.6135 142.979 54.1377 141.206 54.1377V59.0881V64.0384C141.13 64.0384 140.965 64.028 140.747 63.9629C140.524 63.8962 140.305 63.7896 140.113 63.6529L143.229 59.6926ZM141.206 59.0881V54.1377C140.075 54.1377 138.956 54.313 137.877 54.6691L139.576 59.3472L141.274 64.0252C141.262 64.0291 141.246 64.0331 141.229 64.0359C141.212 64.0384 141.204 64.0384 141.206 64.0384V59.0881ZM139.576 59.3472L137.817 54.6894C136.379 55.183 135.14 56.0436 134.208 57.2106L138.338 60.2107L142.468 63.2108C142.338 63.3731 142.167 63.5396 141.955 63.6877C141.743 63.8357 141.528 63.9385 141.334 64.0049L139.576 59.3472ZM138.338 60.2107L134.283 57.1182C132.977 58.6752 132.662 60.4555 132.662 61.8227H137.855H143.047C143.047 61.8335 143.047 61.9982 142.968 62.2616C142.885 62.5379 142.716 62.9171 142.392 63.3032L138.338 60.2107ZM137.855 61.8227H132.662V70.1129H137.855H143.047V61.8227H137.855ZM137.855 70.1129V65.1625H134.232V70.1129V75.0632H137.855V70.1129ZM134.232 70.1129H139.424V55.7202H134.232H129.039V70.1129H134.232ZM134.232 55.7202V60.6706H137.855V55.7202V50.7699H134.232V55.7202ZM137.855 55.7202H132.662V56.814H137.855H143.047V55.7202H137.855ZM137.855 56.814L141.526 60.3145C141.485 60.3537 141.411 60.4144 141.303 60.476C141.195 60.5384 141.077 60.5866 140.963 60.6181L139.515 55.8641L138.067 51.1101C136.56 51.5274 135.252 52.2948 134.183 53.3136L137.855 56.814ZM139.515 55.8641L141.064 60.5892C141.247 60.5345 141.36 60.5266 141.417 60.5266V55.5763V50.6259C140.227 50.6259 139.071 50.81 137.967 51.1391L139.515 55.8641ZM141.417 55.5763V60.5266C141.686 60.5266 141.883 60.5706 142.055 60.6385L144.044 56.0656L146.033 51.4928C144.554 50.9083 143 50.6259 141.417 50.6259V55.5763ZM144.044 56.0656L142.196 60.6916C142.221 60.7008 142.185 60.6907 142.119 60.6443C142.05 60.5961 141.982 60.5332 141.928 60.4654L146.067 57.4761L150.206 54.4868C149.065 53.0511 147.566 52.0476 145.892 51.4396L144.044 56.0656ZM146.067 57.4761L150.146 60.5398C150.046 60.6597 149.947 60.7367 149.885 60.776C149.828 60.8119 149.833 60.7969 149.943 60.7619L148.301 56.0656L146.659 51.3694C144.93 51.9189 143.258 52.8767 141.988 54.4124L146.067 57.4761ZM148.301 56.0656L150.035 60.732C150.516 60.5692 150.866 60.5266 151.109 60.5266V55.5763V50.6259C149.541 50.6259 148.018 50.9096 146.568 51.3993L148.301 56.0656ZM151.109 55.5763V60.5266C151.324 60.5266 151.439 60.5655 151.561 60.6352L154.219 56.3823L156.876 52.1294C155.107 51.1244 153.149 50.6259 151.109 50.6259V55.5763ZM154.219 56.3823L151.632 60.6748C151.744 60.736 151.85 60.8171 151.975 61.0261L156.483 58.57L160.991 56.1138C159.99 54.4423 158.586 53.0648 156.805 52.0898L154.219 56.3823ZM156.483 58.57L152.039 61.1298C152.06 61.1627 152.166 61.3319 152.166 61.8227H157.359H162.551C162.551 59.8187 162.074 57.8195 160.927 56.0101L156.483 58.57ZM157.359 61.8227H152.166V70.1129H157.359H162.551V61.8227H157.359ZM163.26 69.5948L160.613 73.8535L160.661 73.8808L160.71 73.9072L163.26 69.5948ZM160.693 67.0616L156.099 69.3672L156.124 69.4134L156.151 69.4593L160.693 67.0616ZM161.78 57.5337L158.082 54.0593L158.081 54.0596L161.78 57.5337ZM170.868 56.4398L168.347 60.7672L168.364 60.7765L168.382 60.7857L170.868 56.4398ZM173.465 59.0305L168.852 61.3029L168.86 61.3179L168.868 61.333L173.465 59.0305ZM173.465 67.0616L178.007 69.4593L178.017 69.4429L178.026 69.4268L173.465 67.0616ZM170.868 69.5948L173.453 73.888L173.466 73.8808L173.479 73.8735L170.868 69.5948ZM169.177 66.6299L172.093 70.7262L172.109 70.7157L172.125 70.7051L169.177 66.6299ZM170.476 65.1618L165.802 63.0057L165.772 63.0647L165.744 63.1243L170.476 65.1618ZM169.932 60.1819L165.701 63.0508L165.739 63.1019L165.778 63.1521L169.932 60.1819ZM164.256 60.1244L160.183 57.0541L160.16 57.0821L160.137 57.1105L164.256 60.1244ZM165.011 66.6299L162.096 70.7262L162.13 70.7487L162.165 70.7705L165.011 66.6299ZM167.094 70.4871V65.5367C166.411 65.5367 166.034 65.4033 165.809 65.2823L163.26 69.5948L160.71 73.9072C162.699 74.9761 164.879 75.4374 167.094 75.4374V70.4871ZM163.26 69.5948L165.907 65.336C165.63 65.1798 165.422 64.9847 165.236 64.6642L160.693 67.0616L156.151 69.4593C157.213 71.288 158.715 72.7815 160.613 73.8535L163.26 69.5948ZM160.693 67.0616L165.288 64.7561C165.137 64.4818 164.98 64.0302 164.98 63.262H159.788H154.595C154.595 65.3723 155.042 67.4538 156.099 69.3672L160.693 67.0616ZM159.788 63.262H164.98C164.98 61.4982 165.438 61.0477 165.479 61.0077L161.78 57.5337L158.081 54.0596C155.466 56.5911 154.595 59.9595 154.595 63.262H159.788ZM161.78 57.5337L165.479 61.0081C165.711 60.784 166.076 60.5266 167.094 60.5266V55.5763V50.6259C163.725 50.6259 160.547 51.6736 158.082 54.0593L161.78 57.5337ZM167.094 55.5763V60.5266C167.774 60.5266 168.14 60.6577 168.347 60.7672L170.868 56.4398L173.39 52.1125C171.423 51.0707 169.272 50.6259 167.094 50.6259V55.5763ZM170.868 56.4398L168.382 60.7857C168.507 60.8508 168.665 60.9577 168.852 61.3029L173.465 59.0305L178.078 56.7581C177.017 54.8005 175.443 53.1803 173.355 52.094L170.868 56.4398ZM173.465 59.0305L168.868 61.333C168.996 61.5644 169.208 62.128 169.208 63.262H174.401H179.593C179.593 61.0184 179.182 58.7612 178.061 56.7281L173.465 59.0305ZM174.401 63.262H169.208C169.208 64.0047 169.053 64.4345 168.903 64.6965L173.465 67.0616L178.026 69.4268C179.125 67.5011 179.593 65.3978 179.593 63.262H174.401ZM173.465 67.0616L168.922 64.6642C168.749 64.9618 168.549 65.1541 168.257 65.316L170.868 69.5948L173.479 73.8735C175.402 72.8073 176.932 71.3107 178.007 69.4593L173.465 67.0616ZM170.868 69.5948L168.283 65.3015C168.088 65.4084 167.746 65.5367 167.094 65.5367V70.4871V75.4374C169.301 75.4374 171.475 74.9708 173.453 73.888L170.868 69.5948ZM167.094 67.1768V72.1271C168.736 72.1271 170.501 71.7559 172.093 70.7262L169.177 66.6299L166.262 62.5335C166.477 62.3947 166.687 62.3117 166.856 62.2673C167.017 62.225 167.107 62.2264 167.094 62.2264V67.1768ZM169.177 66.6299L172.125 70.7051C173.458 69.8287 174.523 68.6458 175.208 67.1993L170.476 65.1618L165.744 63.1243C165.796 63.0139 165.872 62.8955 165.97 62.784C166.068 62.6736 166.162 62.5988 166.23 62.5546L169.177 66.6299ZM170.476 65.1618L175.15 67.318C175.798 66.0397 176.121 64.6679 176.121 63.262H170.929H165.736C165.736 63.2413 165.739 63.1991 165.752 63.1435C165.766 63.0878 165.784 63.0399 165.802 63.0057L170.476 65.1618ZM170.929 63.262H176.121C176.121 61.1443 175.52 59.0346 174.086 57.2117L169.932 60.1819L165.778 63.1521C165.765 63.1351 165.751 63.1138 165.738 63.0904C165.726 63.0671 165.72 63.0502 165.718 63.0442C165.713 63.0299 165.736 63.0911 165.736 63.262H170.929ZM169.932 60.1819L174.164 57.3131C172.415 54.9683 169.784 53.9362 167.094 53.9362V58.8866V63.8369C167.088 63.8369 166.845 63.834 166.498 63.6756C166.129 63.5071 165.858 63.2611 165.701 63.0508L169.932 60.1819ZM167.094 58.8866V53.9362C164.471 53.9362 161.954 54.9186 160.183 57.0541L164.256 60.1244L168.329 63.1947C168.193 63.3586 167.959 63.5583 167.639 63.6978C167.333 63.8309 167.116 63.8369 167.094 63.8369V58.8866ZM164.256 60.1244L160.137 57.1105C158.636 58.9753 158.067 61.1491 158.067 63.262H163.26H168.452C168.452 63.0392 168.481 62.9529 168.478 62.962C168.477 62.967 168.469 62.9903 168.45 63.0256C168.431 63.0614 168.406 63.1004 168.375 63.1382L164.256 60.1244ZM163.26 63.262H158.067C158.067 64.6648 158.38 66.049 159.039 67.3467L163.713 65.1906L168.387 63.0344C168.409 63.0784 168.428 63.1296 168.44 63.1807C168.446 63.205 168.449 63.2251 168.451 63.24C168.452 63.2548 168.452 63.2625 168.452 63.262H163.26ZM163.713 65.1906L159.039 67.3467C159.731 68.7097 160.763 69.8643 162.096 70.7262L165.011 66.6299L167.926 62.5335C168.014 62.59 168.11 62.6688 168.2 62.7688C168.29 62.8683 168.35 62.9629 168.387 63.0344L163.713 65.1906ZM165.011 66.6299L162.165 70.7705C163.719 71.741 165.437 72.1271 167.094 72.1271V67.1768V62.2264C167.103 62.2264 167.197 62.2277 167.348 62.2673C167.504 62.3084 167.682 62.3803 167.856 62.4892L165.011 66.6299Z" fill="#1A3844"/>
</g>
<path d="M166.731 65.6379C168.642 65.6379 170.192 64.1604 170.192 62.3377C170.192 60.515 168.642 59.0375 166.731 59.0375C164.819 59.0375 163.269 60.515 163.269 62.3377C163.269 64.1604 164.819 65.6379 166.731 65.6379Z" fill="#1A3844"/>
</svg>
